<?xml version="1.0" encoding="UTF-8" standalone="no"?>
<!DOCTYPE svg PUBLIC "-//W3C//DTD SVG 1.1//EN" "http://www.w3.org/Graphics/SVG/1.1/DTD/svg11.dtd">
<svg width="100%" height="100%" viewBox="0 0 400 29" version="1.1" xmlns="http://www.w3.org/2000/svg" xmlns:xlink="http://www.w3.org/1999/xlink" xml:space="preserve" xmlns:serif="http://www.serif.com/" style="fill-rule:evenodd;clip-rule:evenodd;stroke-linejoin:round;stroke-miterlimit:2;">
    <g id="svgg">
        <path id="path0" d="M100.777,3.907C100.622,4.311 100.662,24.178 100.819,24.58C101.151,25.43 101.36,24.173 101.305,21.661C101.264,19.774 101.303,19.131 101.47,18.966C101.651,18.788 101.683,18.947 101.65,19.88C101.613,20.958 101.82,21.568 102.122,21.267C102.293,21.096 102.287,7.398 102.116,7.227C101.863,6.974 101.672,7.585 101.669,8.658C101.667,9.491 101.622,9.689 101.468,9.534C101.328,9.394 101.279,8.582 101.304,6.787C101.34,4.259 101.114,3.028 100.777,3.907M63.916,4.001C63.857,4.096 63.814,5.365 63.819,6.82C63.827,9.04 63.788,9.482 63.576,9.563C63.363,9.645 63.327,9.485 63.352,8.571C63.381,7.537 63.169,6.942 62.878,7.233C62.716,7.395 62.723,21.112 62.885,21.274C63.183,21.572 63.385,20.941 63.359,19.798C63.333,18.65 63.345,18.606 63.581,19C63.776,19.326 63.824,19.946 63.803,21.843C63.776,24.152 63.873,24.867 64.172,24.556C64.245,24.479 64.323,22.879 64.344,21C64.395,16.573 64.561,15.931 64.667,19.75C64.737,22.269 64.79,22.75 65,22.75C65.211,22.75 65.267,22.215 65.357,19.365C65.474,15.664 65.667,14.633 65.667,17.709C65.667,18.771 65.712,19.758 65.767,19.902C66.002,20.513 66.168,19.869 66.185,18.282C66.196,17.348 66.258,15.871 66.325,15L66.446,13.417L66.491,14.917C66.516,15.742 66.523,16.584 66.507,16.789C66.462,17.35 66.631,17.531 67.01,17.328C67.25,17.2 67.333,16.977 67.333,16.466C67.333,14.937 67.548,16.121 67.599,17.932C67.629,19.001 67.694,19.916 67.744,19.966C67.989,20.211 68.09,19.605 68.167,17.445C68.243,15.276 68.493,15.286 68.499,17.458C68.499,17.81 68.582,18 68.732,18C69.073,18 69.167,17.618 69.167,16.236C69.167,15.523 69.237,15 69.333,15C69.425,15 69.5,15.408 69.5,15.907C69.5,17.378 69.978,17.259 70.019,15.778L70.038,15.083L70.176,15.75C70.252,16.117 70.318,16.764 70.324,17.188C70.333,17.911 70.64,18.471 70.89,18.221C70.951,18.16 71,17.678 71,17.149C71,16.619 71.075,16.14 71.167,16.083C71.274,16.017 71.334,16.652 71.336,17.865C71.339,19.863 71.457,20.37 71.82,19.933C71.934,19.795 71.989,19.548 71.942,19.383C71.896,19.218 71.955,18.521 72.074,17.833L72.291,16.583L72.315,17.583C72.338,18.546 72.532,19.191 72.71,18.893C73.096,18.247 72.998,9.585 72.606,9.714C72.502,9.748 72.373,10.258 72.32,10.846C72.268,11.435 72.211,11.715 72.195,11.468C72.18,11.221 72.082,10.967 71.979,10.904C71.857,10.828 71.821,10.42 71.876,9.731C71.956,8.732 71.755,8.134 71.443,8.446C71.383,8.506 71.322,9.987 71.309,11.736L71.284,14.917L71.136,12.75C70.959,10.189 70.927,10.048 70.578,10.338C70.415,10.473 70.332,10.817 70.342,11.315C70.351,11.738 70.287,12.421 70.2,12.833L70.042,13.583L70.018,12.75C69.963,10.779 69.59,11.172 69.387,13.417L69.251,14.917L69.167,12.805C69.121,11.643 69.032,10.642 68.969,10.58C68.72,10.332 68.5,10.725 68.5,11.417C68.5,11.818 68.425,12.193 68.333,12.25C68.155,12.36 68.128,12.004 68.165,10.058C68.179,9.302 68.116,8.822 67.992,8.745C67.664,8.543 67.563,8.939 67.603,10.264C67.624,10.961 67.591,11.805 67.531,12.14L67.421,12.75L67.335,12C67.236,11.13 66.6,10.855 66.565,11.667C66.471,13.833 66.206,12.942 66.183,10.385C66.168,8.653 66.009,7.969 65.767,8.598C65.712,8.742 65.667,9.654 65.667,10.625C65.667,13.547 65.441,12.384 65.342,8.953C65.265,6.258 65.21,5.75 65,5.75C64.79,5.75 64.737,6.222 64.667,8.667C64.566,12.19 64.336,10.611 64.334,6.385C64.333,4.236 64.209,3.527 63.916,4.001M226.254,4.153C226.199,4.329 226.198,5.487 226.253,6.728C226.334,8.545 226.305,9.073 226.106,9.45C225.869,9.897 225.86,9.865 225.897,8.702C225.933,7.587 225.709,6.902 225.407,7.204C225.24,7.372 225.122,15.64 225.245,18.559C225.355,21.169 225.4,21.504 225.614,21.29C225.779,21.126 225.86,20.677 225.865,19.906C225.87,18.913 225.9,18.804 226.094,19.069C226.266,19.305 226.295,19.933 226.224,21.857C226.132,24.333 226.289,25.266 226.691,24.633C226.847,24.387 226.887,4.501 226.732,4.097C226.595,3.739 226.377,3.765 226.254,4.153M255.773,4.082C255.619,4.486 255.664,24.228 255.82,24.48C256.182,25.063 256.35,24.423 256.333,22.527C256.304,19.411 256.324,19 256.5,19C256.592,19 256.667,19.434 256.667,19.968C256.667,21.077 257.038,21.868 257.22,21.145C257.364,20.568 257.32,7.66 257.172,7.259C256.961,6.69 256.637,7.548 256.684,8.552C256.706,9.028 256.655,9.436 256.57,9.459C256.483,9.483 256.399,8.439 256.376,7.042C256.327,4.059 256.138,3.131 255.773,4.082M335.257,9.057C335.109,15.425 335.293,24.708 335.565,24.617C335.688,24.577 335.765,23.645 335.796,21.845C335.832,19.734 335.896,19.08 336.086,18.891C336.3,18.676 336.322,18.789 336.265,19.814C336.203,20.94 336.457,21.808 336.722,21.378C336.781,21.284 336.834,19.727 336.841,17.919C336.853,14.759 336.979,13.894 337.163,15.719C337.27,16.787 337.719,16.955 337.802,15.958C337.858,15.28 338.111,15.111 338.197,15.695C338.285,16.294 338.595,16.215 338.782,15.545L338.958,14.917L338.981,15.917C339.012,17.229 339.219,17.561 339.67,17.023L340,16.63L340.003,17.19C340.005,17.773 340.241,18.314 340.416,18.139C340.552,18.003 340.625,17.312 340.648,15.931C340.671,14.508 340.82,14.563 340.876,16.015C340.935,17.57 341.538,17.623 341.667,16.083L341.75,15.083L341.874,16.5C341.942,17.279 341.998,18.268 341.999,18.698C342.001,20.496 342.491,19.711 342.521,17.861C342.55,16.065 342.803,17.465 342.821,19.521C342.83,20.544 342.901,21.016 343.068,21.154C343.439,21.462 343.483,21.21 343.507,18.653C343.535,15.791 343.712,14.782 343.833,16.794C343.935,18.474 344.231,18.685 344.299,17.125C344.357,15.803 344.776,15.485 344.865,16.695C344.971,18.122 345.296,17.571 345.42,15.757C345.613,12.928 345.125,9.614 344.833,11.773C344.683,12.89 344.333,12.651 344.333,11.431C344.333,10.566 344.28,10.333 344.083,10.333C343.882,10.333 343.831,10.604 343.819,11.708C343.796,13.896 343.563,12.555 343.522,10C343.481,7.419 343.419,7.055 343.069,7.345C342.904,7.482 342.833,7.92 342.832,8.812C342.831,9.511 342.775,10.496 342.707,11L342.583,11.917L342.5,10.457C342.423,9.107 342.128,8.37 342.05,9.333C342.031,9.563 341.959,10.5 341.889,11.417C341.778,12.876 341.751,12.98 341.673,12.25C341.526,10.878 340.949,11.047 340.82,12.5L340.724,13.583L340.694,12.583C340.65,11.163 340.486,10.31 340.269,10.383C340.077,10.448 340.058,10.526 340.009,11.5C339.983,12.005 339.959,12.035 339.834,11.725C339.43,10.722 339.007,11.156 339,12.583C338.996,13.291 338.948,13.51 338.833,13.333C338.744,13.196 338.671,12.915 338.669,12.708C338.666,12.244 338.334,12.213 338.215,12.667C338.104,13.092 337.833,13.101 337.833,12.68C337.833,12.184 337.654,11.833 337.399,11.833C337.231,11.833 337.167,12.065 337.167,12.667C337.167,13.125 337.092,13.5 337,13.5C336.895,13.5 336.832,12.373 336.831,10.458C336.829,8.785 336.762,7.313 336.682,7.186C336.407,6.752 336.173,7.571 336.239,8.737C336.291,9.666 336.264,9.816 336.071,9.657C335.896,9.511 335.83,8.805 335.796,6.705C335.765,4.864 335.688,3.924 335.565,3.882C335.433,3.839 335.344,5.335 335.257,9.057M147.273,5.251C147.115,5.663 147.149,23.048 147.309,23.3C147.672,23.873 147.851,22.999 147.844,20.689C147.84,19.317 147.905,18.309 148.002,18.249C148.106,18.184 148.168,18.717 148.169,19.698C148.172,21.193 148.334,21.888 148.616,21.606C148.79,21.432 148.789,7.067 148.615,6.892C148.33,6.607 148.172,7.321 148.167,8.917C148.163,10.007 148.108,10.499 148.007,10.339C147.922,10.205 147.851,9.048 147.849,7.768C147.846,5.47 147.6,4.397 147.273,5.251M179.866,5.201C179.731,5.336 179.666,6.152 179.664,7.742C179.663,9.03 179.589,10.196 179.5,10.333C179.39,10.504 179.337,10.055 179.333,8.917C179.328,7.319 179.17,6.607 178.884,6.894C178.709,7.069 178.709,21.431 178.884,21.606C179.17,21.893 179.328,21.181 179.333,19.583C179.337,18.445 179.39,17.996 179.5,18.167C179.589,18.304 179.663,19.476 179.664,20.771C179.666,22.57 179.721,23.171 179.897,23.317C180.273,23.629 180.333,23.19 180.333,20.125C180.333,16.975 180.536,16.502 180.667,19.349C180.77,21.614 181.065,21.768 181.131,19.592C181.16,18.639 181.273,17.833 181.417,17.556C181.645,17.116 181.653,17.137 181.611,18.09C181.565,19.119 181.733,19.748 182.008,19.578C182.095,19.524 182.175,18.904 182.185,18.198C182.195,17.493 182.259,16.467 182.327,15.917L182.451,14.917L182.475,15.948C182.503,17.09 182.691,17.347 183.177,16.907C183.492,16.623 183.5,16.633 183.5,17.298C183.5,17.9 183.723,18.333 183.928,18.128C183.967,18.088 184.055,17.237 184.123,16.236C184.224,14.75 184.263,14.569 184.332,15.249C184.446,16.371 184.9,16.504 185.077,15.466C185.189,14.807 185.213,14.78 185.375,15.125C185.608,15.621 185.77,15.598 185.971,15.042L186.136,14.583L186.255,15.125C186.338,15.501 186.471,15.667 186.688,15.667C186.924,15.667 187.006,15.535 187.023,15.125C187.036,14.827 187.129,15.429 187.231,16.463C187.432,18.5 187.7,18.96 187.835,17.5C187.961,16.135 188.23,17.014 188.241,18.83C188.248,19.991 188.298,20.253 188.518,20.296C188.752,20.342 188.8,19.966 188.906,17.241C189.059,13.286 188.874,8.167 188.578,8.167C188.258,8.167 188.167,8.575 188.167,10C188.167,11.646 187.951,12.293 187.833,11C187.7,9.529 187.431,9.938 187.232,11.917C187.13,12.925 187.036,13.544 187.023,13.292C186.985,12.543 186.38,12.67 186.229,13.458L186.109,14.083L185.956,13.501L185.803,12.918L185.489,13.306L185.175,13.693L185.065,13.006C184.903,11.991 184.445,12.145 184.332,13.251C184.263,13.931 184.224,13.75 184.123,12.264C184.055,11.263 183.967,10.412 183.928,10.372C183.736,10.18 183.5,10.581 183.5,11.099C183.5,11.629 183.471,11.663 183.163,11.498C182.648,11.222 182.5,11.435 182.5,12.454C182.5,14.143 182.295,13.225 182.224,11.216C182.148,9.089 182.092,8.757 181.835,8.916C181.742,8.973 181.658,9.559 181.647,10.218C181.637,10.877 181.594,11.285 181.552,11.125C181.51,10.965 181.4,10.833 181.308,10.833C181.203,10.833 181.157,10.19 181.186,9.126C181.226,7.63 181.197,7.411 180.949,7.363C180.698,7.315 180.666,7.502 180.664,9.029C180.663,9.976 180.589,10.862 180.5,11C180.392,11.167 180.337,10.279 180.333,8.333C180.328,5.381 180.245,4.822 179.866,5.201M302.279,5.361C302.134,5.944 302.153,23.052 302.299,23.283C302.682,23.888 302.859,23.147 302.907,20.733C302.934,19.367 302.975,18.212 302.998,18.167C303.127,17.908 303.271,19.241 303.214,20.167C303.144,21.309 303.36,21.968 303.654,21.51C303.857,21.195 303.873,7.329 303.671,7.005C303.406,6.58 303.32,6.91 303.216,8.74C303.077,11.191 302.864,10.612 302.864,7.786C302.864,5.451 302.566,4.214 302.279,5.361M17.278,5.292C17.237,5.36 17.193,6.485 17.181,7.79C17.152,10.759 16.944,11.383 16.833,8.833C16.713,6.074 16.441,6.475 16.296,9.623C16.166,12.44 16.051,13.343 16.019,11.792C16.003,10.98 15.498,10.318 15.32,10.875C15.313,10.898 15.268,11.779 15.221,12.833C15.086,15.833 15,15.221 14.997,11.236C14.995,7.902 14.887,6.89 14.569,7.209C14.505,7.273 14.466,8.438 14.483,9.797C14.5,11.156 14.445,12.452 14.362,12.676L14.212,13.083L14.114,12.583C14.061,12.308 14.032,11.372 14.05,10.502C14.078,9.161 14.042,8.913 13.813,8.869C13.412,8.792 13.341,9.277 13.307,12.333L13.276,15.083L13.158,12.75C13.094,11.467 13.032,10.167 13.02,9.861C12.984,8.87 12.591,9.354 12.492,10.513L12.4,11.583L12.181,11.034C11.817,10.12 11.588,10.484 11.535,12.061C11.491,13.395 11.167,14.054 11.167,12.81C11.167,12.222 10.782,12.226 10.695,12.814C10.611,13.392 10.256,13.128 10.198,12.445C10.101,11.291 9.725,11.732 9.548,13.208C9.385,14.572 9.383,14.562 9.358,11.968C9.345,10.53 9.267,9.312 9.186,9.262C8.828,9.041 8.639,9.683 8.713,10.868C8.755,11.537 8.757,11.877 8.717,11.625C8.678,11.373 8.578,11.167 8.496,11.167C8.414,11.167 8.325,10.591 8.299,9.888C8.253,8.682 7.981,8.082 7.798,8.785C7.663,9.306 7.744,19.8 7.884,19.94C8.135,20.191 8.328,19.586 8.331,18.542C8.334,17.391 8.596,17.092 8.639,18.191C8.667,18.903 8.926,19.399 9.186,19.238C9.267,19.188 9.333,18.247 9.333,17.147C9.333,15.856 9.392,15.184 9.5,15.25C9.592,15.307 9.667,15.649 9.667,16.01C9.667,16.483 9.737,16.667 9.917,16.667C10.155,16.667 10.236,16.404 10.179,15.812C10.134,15.347 10.624,15.309 10.74,15.768C10.866,16.272 11.167,16.135 11.167,15.573C11.167,14.494 11.493,15.339 11.535,16.528C11.588,18.019 11.824,18.361 12.181,17.466L12.4,16.917L12.492,17.987C12.639,19.711 12.936,19.426 13.12,17.382L13.282,15.583L13.308,17.187C13.343,19.386 13.449,19.872 13.849,19.658C14.089,19.53 14.153,19.317 14.135,18.705C14.079,16.754 14.182,15.404 14.356,15.833C14.451,16.069 14.502,17.318 14.475,18.705C14.44,20.472 14.483,21.217 14.63,21.363C14.905,21.638 14.886,21.797 14.991,18.333C15.076,15.507 15.096,15.351 15.23,16.458C15.421,18.038 15.984,18.275 16.023,16.792C16.058,15.432 16.167,16.343 16.298,19.083C16.439,22.063 16.712,22.401 16.835,19.75C16.949,17.272 17.153,17.865 17.207,20.831C17.244,22.907 17.288,23.253 17.521,23.298C17.765,23.345 17.808,22.784 17.951,17.8L18.109,12.25L18.138,16.698C18.154,19.145 18.233,21.188 18.314,21.238C18.69,21.47 18.839,20.828 18.754,19.353C18.702,18.464 18.73,17.833 18.821,17.833C18.906,17.833 19.012,17.702 19.057,17.542C19.102,17.381 19.132,17.721 19.125,18.297C19.113,19.207 19.335,19.887 19.567,19.655C19.947,19.276 19.823,8.754 19.44,8.88C19.334,8.915 19.213,9.449 19.167,10.096L19.083,11.25L18.853,10.597C18.693,10.145 18.654,9.573 18.724,8.74C18.801,7.828 18.771,7.489 18.599,7.347C18.253,7.059 18.168,7.463 18.155,9.472C18.147,10.621 18.093,11.132 18,10.917C17.921,10.733 17.851,9.365 17.845,7.875C17.834,5.271 17.688,4.606 17.278,5.292M381.755,10.292C381.69,13.11 381.682,16.654 381.736,18.167C381.79,19.679 381.834,21.46 381.834,22.125C381.833,23.088 381.884,23.333 382.083,23.333C382.377,23.333 382.354,23.51 382.43,20.667C382.463,19.429 382.492,18.36 382.495,18.292C382.498,18.223 382.575,18.167 382.667,18.167C382.766,18.167 382.834,18.821 382.836,19.792C382.838,21.405 383.004,22.164 383.227,21.584C383.362,21.231 383.368,7.284 383.233,6.931C382.994,6.309 382.833,6.976 382.833,8.593C382.833,10.265 382.522,11.179 382.482,9.625C382.436,7.853 382.365,5.564 382.35,5.375C382.341,5.26 382.23,5.167 382.103,5.167C381.915,5.167 381.852,6.101 381.755,10.292M45.771,5.757C45.577,6.261 45.651,22.804 45.848,22.926C46.227,23.16 46.381,22.63 46.415,20.968C46.435,20.023 46.462,18.731 46.476,18.097C46.489,17.463 46.543,16.987 46.595,17.04C46.648,17.092 46.685,18.187 46.677,19.473C46.665,21.55 46.782,22.273 47.082,21.974C47.229,21.827 47.327,13.868 47.226,10.268C47.131,6.876 47.081,6.331 46.89,6.591C46.731,6.809 46.658,7.596 46.638,9.324C46.606,11.963 46.552,11.7 46.369,8.013C46.257,5.747 46.06,5.003 45.771,5.757M118.838,5.875C118.753,6.081 118.624,7.525 118.55,9.083L118.417,11.917L118.376,9.5C118.307,5.378 117.834,4.988 117.831,9.052C117.829,12.076 117.636,13.651 117.5,11.752C117.385,10.149 116.835,9.897 116.831,11.446C116.829,11.98 116.756,12.529 116.667,12.667C116.545,12.855 116.504,12.772 116.5,12.333C116.494,11.684 116.257,11.188 116.051,11.394C115.876,11.569 115.876,16.931 116.051,17.106C116.243,17.299 116.493,16.834 116.509,16.25C116.532,15.432 116.808,16.26 116.822,17.191C116.829,17.692 116.916,17.996 117.067,18.054C117.44,18.197 117.499,18.02 117.519,16.681C117.556,14.271 117.813,16.542 117.824,19.365C117.832,21.753 117.968,22.592 118.233,21.902C118.288,21.758 118.345,20.502 118.36,19.111C118.386,16.629 118.389,16.61 118.519,18.083C118.592,18.908 118.652,20.265 118.651,21.098C118.651,22.565 118.922,23.364 119.243,22.844C119.378,22.627 119.482,11.049 119.379,7.875C119.304,5.587 119.167,5.078 118.838,5.875M208.269,5.636C208.217,5.72 208.168,7.147 208.159,8.808C208.143,11.744 207.899,13.154 207.799,10.88C207.73,9.293 207.288,9.261 207.167,10.833C207.091,11.818 207.051,11.912 206.732,11.869C206.409,11.824 206.371,11.924 206.265,13.093C206.075,15.186 206.36,17.131 206.761,16.482C206.964,16.153 207.161,16.703 207.164,17.605C207.167,18.407 207.457,18.987 207.724,18.721C207.784,18.66 207.84,18.042 207.848,17.347C207.876,14.867 208.121,16.895 208.15,19.842C208.165,21.438 208.243,22.81 208.324,22.891C208.565,23.131 208.867,22.825 208.77,22.439C208.634,21.895 208.903,21.545 209.241,21.826C209.388,21.948 209.556,22 209.614,21.942C209.768,21.787 209.744,6.76 209.589,6.509C209.297,6.037 209.171,6.834 209.14,9.333C209.11,11.836 209.105,11.87 208.981,10.417C208.91,9.592 208.853,8.236 208.853,7.404C208.854,5.97 208.578,5.135 208.269,5.636M273.87,5.792C273.804,5.952 273.75,6.777 273.75,7.625C273.75,8.472 273.694,9.166 273.625,9.166C273.556,9.167 273.484,9.785 273.465,10.542C273.443,11.379 273.394,10.874 273.34,9.25C273.217,5.608 272.94,5.828 272.833,9.652C272.752,12.553 272.5,14.099 272.5,11.694C272.5,10.305 271.856,9.77 271.814,11.125C271.804,11.469 271.777,11.825 271.756,11.917C271.735,12.008 271.694,12.308 271.666,12.583C271.627,12.965 271.591,12.889 271.515,12.263C271.394,11.252 271.001,11.011 270.997,11.944C270.995,12.649 270.69,13.356 270.65,12.75C270.638,12.567 270.618,12.305 270.606,12.169C270.593,12.033 270.462,11.899 270.314,11.87C269.993,11.807 269.845,12.398 269.808,13.896L269.783,14.917L269.675,13.631C269.616,12.924 269.52,12.298 269.462,12.239C269.248,12.025 269,12.367 269,12.877C269,13.572 268.707,13.269 268.637,12.5C268.526,11.287 268.091,11.799 268,13.25C267.901,14.829 267.672,14.098 267.669,12.194C267.666,10.641 267.266,10.889 267.201,12.485L267.152,13.692L266.814,13.263C266.412,12.752 266.167,12.712 266.167,13.157C266.167,13.335 266.092,13.527 266,13.583C265.895,13.649 265.833,13.227 265.833,12.436C265.833,11.749 265.762,11.142 265.675,11.089C265.431,10.938 265.187,11.534 265.285,12.043C265.351,12.389 265.307,12.5 265.103,12.5C264.885,12.5 264.833,12.311 264.833,11.51C264.833,10.649 264.64,10.138 264.404,10.374C264.047,10.731 264.197,18.239 264.559,18.12C264.668,18.084 264.771,17.61 264.8,17.017C264.856,15.852 265.191,15.67 265.333,16.727C265.465,17.703 265.745,17.517 265.801,16.417C265.846,15.533 266.167,14.627 266.167,15.383C266.167,15.791 266.424,15.733 266.814,15.237L267.152,14.808L267.201,16.015C267.271,17.743 267.667,17.821 267.667,16.107C267.667,15.417 267.742,14.807 267.833,14.75C267.937,14.686 268,14.995 268,15.564C268,17.084 268.525,16.986 268.789,15.417L268.957,14.417L268.981,15.167C269.022,16.451 269.413,16.716 269.669,15.633L269.799,15.083L269.819,15.667C269.861,16.93 270.654,17.05 270.683,15.797C270.704,14.898 270.957,15.536 270.983,16.556C271.013,17.681 271.408,17.183 271.5,15.904L271.583,14.75L271.707,15.667C271.775,16.171 271.831,16.894 271.832,17.274C271.833,17.711 271.919,17.997 272.067,18.054C272.436,18.195 272.5,18.018 272.5,16.861C272.5,14.522 272.755,16.199 272.833,19.055C272.939,22.899 273.216,23.029 273.34,19.292C273.389,17.802 273.445,17.152 273.465,17.847C273.484,18.542 273.549,19.16 273.608,19.219C273.668,19.279 273.724,20.075 273.733,20.989C273.748,22.492 273.956,23.309 274.216,22.888C274.402,22.588 274.538,13.864 274.42,9.792C274.305,5.823 274.193,5.005 273.87,5.792M353.44,5.629C353.338,5.793 353.11,9.659 353.14,10.7C353.152,11.13 353.08,11.534 352.98,11.596C352.849,11.677 352.819,11.021 352.874,9.289C352.949,6.929 352.817,5.995 352.483,6.522C352.32,6.779 352.276,21.49 352.437,21.91C352.533,22.159 352.567,22.158 352.85,21.901C353.188,21.595 353.268,21.686 353.367,22.487C353.394,22.709 353.499,22.917 353.599,22.95C353.945,23.064 354.127,13.828 353.89,8.125C353.792,5.77 353.693,5.22 353.44,5.629M99.817,5.708C99.808,5.731 99.772,6.763 99.738,8C99.703,9.237 99.617,10.813 99.546,11.5L99.417,12.75L99.333,10.583C99.224,7.732 98.932,7.789 98.87,10.673C98.827,12.679 98.5,13.77 98.5,11.907C98.5,10.806 97.925,10.832 97.773,11.94C97.636,12.936 97.636,15.564 97.773,16.56C97.925,17.675 98.5,17.693 98.5,16.583C98.5,16.171 98.575,15.833 98.667,15.833C98.768,15.833 98.833,16.607 98.833,17.82C98.833,19.896 98.932,20.542 99.187,20.139C99.265,20.017 99.339,19.017 99.352,17.917C99.37,16.349 99.404,16.079 99.509,16.667C99.582,17.079 99.648,18.517 99.654,19.861C99.667,22.4 99.729,22.833 100.075,22.833C100.363,22.833 100.546,15.496 100.397,9.948C100.304,6.534 100.235,5.667 100.057,5.667C99.934,5.667 99.826,5.685 99.817,5.708M195.934,5.931C195.607,6.784 195.847,22.947 196.184,22.739C196.266,22.688 196.334,21.883 196.336,20.948C196.337,20.014 196.403,19.148 196.482,19.024C196.705,18.671 196.834,19.045 196.766,19.849C196.695,20.685 196.782,21 197.083,21C197.466,21 197.636,7.747 197.258,7.369C197.062,7.173 196.649,7.951 196.73,8.361C196.782,8.621 196.775,9.077 196.714,9.375C196.535,10.252 196.37,9.387 196.35,7.468C196.334,5.954 196.165,5.329 195.934,5.931M227.107,9.952C226.959,15.539 227.139,22.833 227.425,22.833C227.769,22.833 227.833,22.399 227.833,20.094C227.833,16.598 228.059,15.123 228.167,17.917C228.275,20.723 228.567,20.723 228.63,17.917C228.673,15.995 229,14.816 229,16.583C229,17.212 229.052,17.333 229.32,17.333C229.903,17.333 230.053,11.508 229.479,11.154C229.129,10.937 229,11.145 229,11.927C229,12.334 228.925,12.667 228.833,12.667C228.731,12.667 228.666,11.873 228.664,10.625C228.663,9.502 228.598,8.483 228.521,8.361C228.268,7.962 228.168,8.594 228.146,10.722C228.116,13.63 227.846,11.793 227.822,8.518C227.803,5.992 227.758,5.667 227.425,5.667C227.271,5.667 227.192,6.727 227.107,9.952M254.808,6.292C254.794,6.635 254.762,7.779 254.737,8.833C254.652,12.507 254.335,13.86 254.331,10.569C254.328,8.611 254.136,7.638 253.923,8.509C253.749,9.22 253.9,20.087 254.083,20.043C254.177,20.02 254.29,19.105 254.341,17.959C254.391,16.836 254.454,15.992 254.481,16.083C254.591,16.463 254.781,19.673 254.815,21.708C254.829,22.543 254.892,22.833 255.063,22.833C255.378,22.833 255.5,19.251 255.415,12.5C255.378,9.612 255.345,6.894 255.341,6.458C255.331,5.446 254.849,5.295 254.808,6.292M334.448,5.774C334.385,5.837 334.333,6.878 334.333,8.087C334.333,10.581 334.177,12.452 333.993,12.155C333.924,12.044 333.899,11.233 333.936,10.352C334.006,8.71 333.837,7.988 333.504,8.5C333.295,8.823 333.302,19.683 333.512,20.01C333.838,20.516 334.003,19.78 333.908,18.247C333.856,17.403 333.888,16.562 333.981,16.33C334.127,15.962 334.147,15.999 334.159,16.667C334.193,18.623 334.372,22.757 334.426,22.812C334.965,23.372 335.003,22.761 334.96,14.227C334.918,6.114 334.872,5.35 334.448,5.774M33.448,5.941C33.385,6.004 33.32,7.637 33.305,9.569C33.288,11.551 33.234,12.612 33.18,12.001C33.091,11.003 32.556,10.262 32.478,11.029C32.438,11.416 32.397,12.062 32.365,12.792C32.322,13.748 32,13.699 32,12.736C32,11.645 31.608,11.859 31.494,13.013L31.405,13.917L31.287,13C31.221,12.496 31.149,11.858 31.126,11.583C31.023,10.364 30.586,11.048 30.446,12.649C30.265,14.707 30.485,17.417 30.833,17.417C30.991,17.417 31.099,17.231 31.126,16.917C31.149,16.642 31.221,16.004 31.287,15.5L31.405,14.583L31.494,15.487C31.613,16.694 32,16.842 32,15.681C32,15.215 32.075,14.833 32.167,14.833C32.262,14.833 32.334,15.349 32.336,16.042C32.339,17.353 32.487,17.771 32.895,17.615C33.111,17.532 33.166,17.127 33.209,15.299C33.246,13.693 33.272,14.092 33.302,16.75C33.346,20.638 33.444,22.666 33.593,22.816C33.843,23.066 33.999,22.273 33.945,21.031C33.911,20.269 33.92,19.455 33.964,19.224C34.093,18.551 34.328,19.118 34.331,20.107C34.333,20.687 34.409,20.993 34.567,21.054C34.936,21.196 34.993,20.674 35.026,16.833L35.057,13.25L35.219,16.048C35.401,19.193 35.692,19.756 35.833,17.237C35.924,15.614 36.124,15.012 36.359,15.649C36.564,16.202 36.831,15.912 36.85,15.115C36.874,14.101 37.128,14.955 37.15,16.125C37.166,16.947 37.667,17.522 37.667,16.718C37.667,16.472 37.698,16.478 37.911,16.76C38.064,16.961 38.158,17.473 38.161,18.115C38.172,20.242 38.587,19.656 38.773,17.25C38.879,15.877 38.918,15.716 38.993,16.333C39.104,17.251 39.499,17.345 39.766,16.518L39.949,15.953L40.056,16.601C40.115,16.958 40.164,17.462 40.165,17.722C40.168,18.569 40.578,18.11 40.672,17.154C40.744,16.425 40.789,16.676 40.902,18.458C41.01,20.15 41.096,20.667 41.271,20.667C41.574,20.667 41.552,20.899 41.634,16.917C41.667,15.306 41.989,14.522 41.997,16.032C42.003,17.068 42.387,16.695 42.545,15.5C42.575,15.271 42.671,15.871 42.758,16.833C42.978,19.26 43.395,19.359 43.461,17C43.514,15.12 43.697,14.535 43.826,15.833C43.936,16.941 44.217,17.033 44.337,16L44.423,15.25L44.562,16.083C44.638,16.542 44.712,17.269 44.725,17.7C44.754,18.596 45.073,19.091 45.286,18.57C45.455,18.157 45.457,9.902 45.289,9.733C45.052,9.496 44.812,9.95 44.742,10.769C44.704,11.217 44.606,11.958 44.525,12.417L44.378,13.25L44.356,12.542C44.32,11.419 43.833,11.566 43.833,12.7C43.833,14.284 43.515,13.318 43.465,11.582C43.396,9.2 42.993,9.201 42.739,11.583C42.612,12.78 42.542,13.073 42.489,12.622C42.397,11.826 42.114,11.802 41.984,12.578C41.79,13.738 41.666,13.363 41.651,11.569C41.636,9.876 41.589,8.536 41.526,8.042C41.512,7.927 41.395,7.833 41.267,7.833C41.085,7.833 41.004,8.366 40.893,10.292C40.77,12.441 40.742,12.605 40.668,11.596C40.574,10.315 40.182,9.824 40.147,10.944C40.136,11.296 40.074,11.808 40.008,12.083L39.889,12.583L39.726,12C39.501,11.199 39.107,11.243 38.991,12.083C38.917,12.621 38.875,12.461 38.773,11.25C38.606,9.257 38.608,9.27 38.417,9.3C38.325,9.315 38.199,9.797 38.136,10.372C37.964,11.949 37.715,13.072 37.688,12.389C37.635,11.068 37.168,11.065 37.164,12.385C37.163,12.861 37.089,13.362 37,13.5C36.877,13.69 36.838,13.623 36.836,13.218C36.833,12.561 36.546,12.346 36.357,12.858L36.216,13.238L36.025,12.88C35.92,12.683 35.833,11.884 35.833,11.104C35.833,9.823 35.676,9.247 35.433,9.641C35.383,9.721 35.331,10.416 35.317,11.185C35.27,13.748 35.022,13.33 35.008,10.667C35.001,9.246 34.95,7.913 34.894,7.705C34.724,7.069 34.335,7.595 34.322,8.479C34.315,8.903 34.245,9.4 34.167,9.583C33.995,9.983 33.989,9.925 33.945,7.515C33.919,6.066 33.776,5.613 33.448,5.941M131.167,7.569C131.167,8.634 131.101,9.333 131,9.333C130.908,9.333 130.833,9.039 130.833,8.68C130.833,7.881 130.699,7.5 130.418,7.5C130.116,7.5 129.928,13.184 130.085,17.578C130.194,20.623 130.239,21.011 130.479,20.965C130.685,20.926 130.762,20.682 130.8,19.952C130.885,18.327 131.167,19.068 131.167,20.917C131.167,22.526 131.327,23.19 131.566,22.569C131.621,22.424 131.667,20.312 131.667,17.875C131.667,15.438 131.696,13.476 131.731,13.514C131.766,13.552 131.839,14.483 131.891,15.583C131.944,16.683 131.99,17.602 131.994,17.625C131.997,17.648 132.142,17.667 132.315,17.667C132.93,17.667 133.003,11.119 132.391,10.884C132.065,10.759 131.97,10.889 131.916,11.533C131.8,12.923 131.754,12.518 131.672,9.347C131.607,6.837 131.529,5.926 131.375,5.875C131.217,5.822 131.167,6.233 131.167,7.569M286.278,5.944C286.217,6.006 286.167,6.868 286.167,7.861C286.167,9.796 285.884,10.387 285.8,8.627C285.761,7.826 285.688,7.575 285.48,7.535C285.241,7.49 285.195,7.876 285.087,10.842C284.927,15.22 285.12,21 285.426,21C285.689,21 285.869,20.495 285.828,19.872C285.783,19.183 285.818,19 285.995,19C286.086,19 286.176,19.796 286.203,20.834C286.231,21.913 286.319,22.668 286.417,22.669C286.566,22.67 286.65,21.581 286.844,17.083C286.892,15.98 286.898,15.964 286.956,16.792C287.006,17.508 287.073,17.667 287.324,17.667C287.72,17.667 287.93,15.166 287.752,12.561C287.62,10.621 287.145,10.034 287.031,11.668C286.954,12.777 286.665,12.912 286.701,11.823C286.769,9.728 286.656,5.833 286.528,5.833C286.451,5.833 286.339,5.883 286.278,5.944M365.778,5.944C365.717,6.006 365.659,6.962 365.65,8.069C365.634,9.977 365.389,10.311 365.35,8.479C365.334,7.757 365.024,7.198 364.776,7.446C364.716,7.506 364.667,8.743 364.667,10.194C364.667,11.843 364.604,12.833 364.5,12.833C364.401,12.833 364.333,12.194 364.333,11.25C364.333,9.954 364.288,9.667 364.083,9.667C363.88,9.667 363.833,9.941 363.833,11.135C363.833,12.415 363.36,14.158 363.339,12.958C363.326,12.285 362.851,12.687 362.747,13.458C362.577,14.723 362.527,14.673 362.513,13.222C362.506,12.473 362.455,11.742 362.399,11.598C362.228,11.151 362,11.486 362,12.186C362,12.59 361.934,12.812 361.833,12.75C361.741,12.693 361.712,12.462 361.768,12.238C361.824,12.013 361.791,11.734 361.695,11.617C361.598,11.501 361.496,10.964 361.468,10.424C361.376,8.655 361.045,9.138 360.914,11.232C360.781,13.369 360.892,19.114 361.07,19.292C361.292,19.514 361.495,18.907 361.503,18C361.512,16.954 361.881,16.209 362.063,16.871C362.243,17.53 362.493,16.865 362.515,15.667C362.534,14.626 362.541,14.608 362.7,15.208C362.85,15.772 363.333,16.107 363.333,15.646C363.333,15.512 363.401,15.515 363.57,15.656C363.739,15.796 363.81,16.259 363.817,17.271C363.823,18.051 363.871,18.76 363.925,18.847C364.186,19.27 364.333,18.661 364.333,17.157C364.333,16.163 364.4,15.5 364.5,15.5C364.604,15.5 364.667,16.519 364.667,18.222C364.667,19.719 364.716,20.994 364.776,21.054C365.048,21.326 365.333,20.738 365.333,19.906C365.333,19.419 365.408,18.973 365.5,18.917C365.607,18.85 365.668,19.457 365.669,20.615C365.672,22.322 365.856,23.264 366.069,22.662C366.117,22.527 366.222,20.579 366.302,18.333C366.382,16.087 366.46,15.019 366.474,15.958C366.497,17.503 366.53,17.667 366.81,17.667C367.284,17.667 367.507,14.548 367.225,11.85C367.071,10.37 366.619,10.464 366.498,12.001C366.441,12.724 366.366,11.878 366.271,9.458C366.14,6.095 366.077,5.645 365.778,5.944M305.28,7.109C305.218,7.171 305.167,8.447 305.167,9.944C305.167,12.52 304.915,13.788 304.8,11.792C304.757,11.045 304.701,10.917 304.417,10.917C303.859,10.917 303.901,17.557 304.458,17.637C304.808,17.686 304.833,17.629 304.833,16.771C304.833,16.266 304.908,15.807 305,15.75C305.109,15.683 305.167,16.634 305.167,18.48C305.167,21.058 305.295,21.942 305.566,21.235C305.621,21.091 305.667,19.691 305.667,18.125C305.667,14.879 305.875,14.521 306,17.553C306.072,19.312 306.122,19.587 306.375,19.635C306.637,19.685 306.668,19.515 306.681,17.971C306.705,15.179 306.951,14.122 306.978,16.695C306.99,17.856 307.045,18.924 307.101,19.069C307.293,19.571 307.5,19.142 307.5,18.24C307.5,17.335 307.717,17.036 307.917,17.667C308.395,19.175 308.794,16.271 308.602,12.676C308.479,10.379 308.439,10.251 308.001,10.792C307.569,11.324 307.523,11.277 307.467,10.248C307.36,8.292 307.082,9.287 307,11.917L306.917,14.583L306.793,12.917C306.724,12 306.668,10.706 306.668,10.042C306.667,8.945 306.636,8.833 306.333,8.833C306.022,8.833 305.999,8.95 305.984,10.625C305.974,11.61 305.91,12.829 305.84,13.333C305.753,13.964 305.705,13.184 305.688,10.833C305.663,7.668 305.571,6.818 305.28,7.109M384.767,7.265C384.712,7.409 384.658,8.89 384.648,10.555C384.631,13.203 384.377,14.026 384.343,11.542C384.326,10.303 383.743,10.554 383.607,11.858C383.326,14.548 383.55,17.667 384.024,17.667C384.279,17.667 384.337,17.528 384.353,16.875C384.41,14.583 384.63,15.445 384.647,18.028C384.658,19.648 384.712,21.091 384.767,21.235C385.038,21.941 385.167,21.059 385.167,18.49C385.167,16.719 385.229,15.667 385.333,15.667C385.435,15.667 385.5,16.418 385.5,17.589C385.5,19.471 385.68,20.042 386.131,19.591C386.282,19.44 386.362,10.864 386.223,9.701C386.01,7.909 385.59,8.628 385.536,10.877C385.462,13.955 385.167,13.261 385.167,10.01C385.167,7.441 385.038,6.559 384.767,7.265M56.235,7.35C56.047,7.644 56.037,20.84 56.225,21.133C56.578,21.686 56.809,20.979 56.819,19.319C56.832,17.051 57.055,16.286 57.167,18.127C57.272,19.873 57.568,20.005 57.628,18.333C57.686,16.749 57.763,16.508 58.077,16.933C58.578,17.612 58.748,16.977 58.789,14.26C58.829,11.606 58.669,10.931 58.126,11.474C57.757,11.843 57.68,11.658 57.632,10.292C57.569,8.513 57.276,8.564 57.167,10.373C57.057,12.187 56.839,11.495 56.836,9.324C56.833,7.684 56.571,6.823 56.235,7.35M108.542,7.287C108.4,7.337 108.333,7.769 108.332,8.639C108.33,10.285 108.161,11.683 107.977,11.569C107.898,11.52 107.833,10.927 107.833,10.25C107.833,9.073 107.648,8.539 107.434,9.098C107.115,9.931 107.35,19.779 107.684,19.573C107.766,19.522 107.833,19.002 107.833,18.417C107.833,17.832 107.902,17.311 107.985,17.259C108.117,17.178 108.226,18.098 108.377,20.57C108.399,20.93 108.502,21.252 108.606,21.286C108.879,21.376 109.069,15.312 108.934,10.854C108.815,6.958 108.84,7.18 108.542,7.287M146.447,7.275C146.385,7.338 146.331,8.108 146.328,8.986C146.324,10.121 146.252,10.676 146.079,10.905C145.859,11.197 145.839,11.132 145.865,10.193C145.881,9.6 145.812,9.078 145.702,8.969C145.418,8.685 145.359,8.993 145.287,11.124C145.221,13.061 145,13.951 145,12.278C145,11.305 144.904,11.195 144.322,11.506C144.032,11.661 144,11.62 144,11.099C144,10.599 143.765,10.178 143.587,10.358C143.555,10.39 143.458,11.204 143.372,12.167C143.285,13.129 143.203,13.598 143.19,13.208C143.158,12.252 142.598,12.176 142.424,13.104L142.31,13.708L142.039,13.321L141.768,12.933L141.576,13.404L141.383,13.874L141.279,13.354C141.141,12.661 140.55,12.616 140.463,13.292C140.431,13.544 140.342,12.963 140.267,12C140.091,9.77 139.68,9.199 139.667,11.167C139.657,12.533 139.365,11.524 139.349,10.072C139.323,7.608 138.68,7.198 138.647,9.625C138.636,10.427 138.574,11.833 138.508,12.75L138.388,14.417L138.361,11.885C138.346,10.492 138.267,9.312 138.186,9.262C137.837,9.046 137.633,9.694 137.68,10.871C137.706,11.538 137.659,12.308 137.575,12.583L137.423,13.083L137.337,12.43C137.187,11.304 136.89,11.546 136.768,12.893C136.546,15.342 137.05,18.129 137.343,16.07L137.436,15.417L137.588,16.25C137.672,16.708 137.721,17.485 137.698,17.976C137.657,18.842 137.883,19.425 138.186,19.238C138.267,19.188 138.342,18.383 138.352,17.448C138.368,16.092 138.399,15.884 138.51,16.417C138.585,16.783 138.652,17.815 138.657,18.708C138.665,19.982 138.717,20.333 138.899,20.333C139.243,20.333 139.333,19.95 139.333,18.5C139.333,16.854 139.549,16.207 139.667,17.5C139.802,18.99 140.071,18.482 140.259,16.379C140.365,15.196 140.464,14.648 140.509,14.999C140.604,15.744 141.074,15.883 141.249,15.217C141.37,14.753 141.372,14.752 141.544,15.125C141.776,15.626 141.969,15.598 142.111,15.042C142.223,14.605 142.238,14.62 142.414,15.333C142.672,16.379 143.058,16.336 143.168,15.25C143.237,14.569 143.276,14.749 143.377,16.236C143.445,17.237 143.533,18.088 143.572,18.128C143.763,18.319 144,17.92 144,17.407C144,16.813 144.133,16.699 144.452,17.019C144.784,17.35 145,16.999 145,16.129C145,14.552 145.207,15.468 145.279,17.367C145.362,19.528 145.419,19.814 145.708,19.526C145.823,19.41 145.894,18.9 145.878,18.289C145.855,17.348 145.875,17.281 146.093,17.574C146.264,17.804 146.333,18.368 146.333,19.532C146.333,20.816 146.383,21.167 146.565,21.167C146.884,21.167 147.083,15.452 146.923,10.851C146.812,7.633 146.727,6.995 146.447,7.275M150.155,7.361C150.149,7.483 150.154,8.727 150.166,10.125C150.187,12.573 149.916,13.807 149.8,11.792C149.757,11.045 149.701,10.917 149.417,10.917C149.096,10.917 149.082,11.043 149.038,14.292L148.993,17.667L149.413,17.667C149.816,17.667 149.833,17.625 149.833,16.657C149.833,16.026 149.896,15.686 150,15.75C150.1,15.812 150.167,16.943 150.167,18.583C150.167,21.094 150.338,22.141 150.583,21.132C150.786,20.297 150.592,7.28 150.375,7.208C150.26,7.17 150.162,7.239 150.155,7.361M176.944,7.278C176.779,7.443 176.815,21.046 176.982,21.309C177.276,21.774 177.363,21.115 177.347,18.533C177.338,17.055 177.403,15.808 177.496,15.667C177.623,15.476 177.666,15.554 177.679,16C177.727,17.539 177.738,17.582 178.128,17.637L178.507,17.691L178.462,14.304C178.418,11.043 178.404,10.917 178.083,10.917C177.794,10.917 177.743,11.044 177.7,11.88C177.593,13.936 177.333,12.54 177.333,9.907C177.333,7.404 177.267,6.955 176.944,7.278M263.546,7.305C263.426,7.379 263.341,7.942 263.327,8.755C263.295,10.531 263.163,11.518 262.973,11.4C262.888,11.347 262.856,10.888 262.903,10.38C263.033,8.977 262.634,8.387 262.478,9.75C262.315,11.163 262.318,18.93 262.481,19.371C262.697,19.954 262.977,19.267 262.904,18.333C262.872,17.921 262.895,17.433 262.955,17.25C263.136,16.702 263.291,17.688 263.314,19.524C263.329,20.743 263.39,21.153 263.57,21.222C263.976,21.377 264,20.974 263.997,14.195C263.995,7.747 263.95,7.055 263.546,7.305M381.031,7.379C380.918,7.515 380.845,8.234 380.849,9.159C380.853,10.048 380.78,10.786 380.678,10.888C380.552,11.015 380.5,10.797 380.5,10.137C380.5,9.171 380.122,8.474 379.946,9.116C379.829,9.543 379.816,19.016 379.932,19.382C380.13,20.005 380.5,19.343 380.505,18.355C380.509,17.586 380.544,17.474 380.695,17.735C380.799,17.914 380.865,18.666 380.846,19.455C380.812,20.87 381.043,21.629 381.358,21.133C381.433,21.014 381.495,17.917 381.495,14.25C381.495,7.75 381.437,6.89 381.031,7.379M218.609,9.61C218.368,14.645 218.556,21.167 218.943,21.167C219.066,21.167 219.171,21.073 219.176,20.958C219.212,20.119 219.279,18.448 219.304,17.782C219.35,16.536 219.667,17.018 219.667,18.333C219.667,19.475 219.905,20.026 220.084,19.298C220.254,18.612 220.096,8.913 219.917,8.957C219.825,8.979 219.728,9.561 219.701,10.249C219.653,11.486 219.362,12.005 219.303,10.958C219.286,10.66 219.256,10.267 219.236,10.083C219.216,9.9 219.192,9.206 219.183,8.542C219.171,7.649 219.108,7.333 218.943,7.333C218.771,7.333 218.693,7.868 218.609,9.61M301.444,7.444C301.383,7.506 301.333,8.293 301.333,9.194C301.333,11.25 300.947,11.47 300.795,9.5C300.688,8.115 300.413,9.142 300.37,11.09C300.325,13.1 300,14.022 300,12.139C300,11.457 299.953,11.317 299.75,11.399C299.612,11.454 299.392,11.544 299.261,11.597C299.082,11.669 299.008,11.532 298.969,11.055C298.872,9.878 298.585,10.401 298.404,12.083C298.27,13.328 298.207,13.582 298.154,13.085C298.031,11.927 297.561,12.103 297.404,13.366C297.332,13.944 297.246,14.267 297.213,14.083C297.059,13.219 296.982,13 296.833,13C296.745,13 296.621,13.206 296.557,13.458L296.44,13.917L296.299,13.375C296.088,12.568 295.538,12.623 295.468,13.458C295.439,13.802 295.355,13.224 295.28,12.174C295.113,9.816 294.676,9.087 294.669,11.153C294.664,12.534 294.417,11.644 294.333,9.945C294.267,8.586 294.2,8.25 294,8.25C293.795,8.25 293.735,8.633 293.667,10.362C293.566,12.915 293.333,13.387 293.333,11.038C293.333,9.349 293.213,8.959 292.835,9.415C292.695,9.584 292.661,10.048 292.725,10.908C292.779,11.631 292.752,12.197 292.659,12.255C292.572,12.309 292.489,12.555 292.475,12.802C292.46,13.074 292.411,12.961 292.35,12.513C292.057,10.354 291.557,12.992 291.774,15.553C291.898,17.016 292.213,17.222 292.311,15.904L292.373,15.083L292.599,16C292.732,16.535 292.786,17.272 292.73,17.771C292.632,18.641 292.871,19.433 293.175,19.245C293.262,19.191 293.333,18.397 293.333,17.48C293.333,16.412 293.393,15.851 293.5,15.917C293.597,15.977 293.667,16.922 293.667,18.189C293.667,20.165 293.693,20.353 293.958,20.302C294.207,20.255 294.262,19.994 294.333,18.554C294.42,16.789 294.667,15.982 294.667,17.462C294.667,18.192 294.871,18.684 295.085,18.47C295.12,18.435 295.208,17.509 295.281,16.412C295.354,15.314 295.439,14.679 295.469,15C295.561,15.975 296.311,15.929 296.346,14.946C296.358,14.629 296.381,14.641 296.527,15.042C296.619,15.294 296.757,15.5 296.833,15.5C296.91,15.5 297.044,15.294 297.131,15.042C297.283,14.602 297.295,14.616 297.414,15.375C297.482,15.81 297.586,16.166 297.644,16.164C297.944,16.157 298.146,15.854 298.197,15.332C298.229,15.012 298.317,15.523 298.392,16.468C298.533,18.253 298.865,18.766 298.968,17.359C299.018,16.68 299.029,16.668 299.38,16.914C299.922,17.294 300,17.233 300,16.43C300,14.627 300.258,15.295 300.333,17.293C300.422,19.635 300.713,20.325 300.8,18.397C300.884,16.529 301.321,17.476 301.328,19.542C301.332,20.788 301.385,21.167 301.557,21.167C301.798,21.167 302,18.01 302,14.25C302,11.524 301.799,7.333 301.668,7.333C301.606,7.333 301.506,7.383 301.444,7.444M123.443,9.708C123.187,14.151 123.383,20.667 123.772,20.667C124.067,20.667 124.15,20.227 124.22,18.292C124.281,16.595 124.5,15.816 124.5,17.296C124.5,18.15 124.711,18.559 124.899,18.069C124.955,17.924 125,17.422 125,16.953C125,16.134 125.227,16.005 125.361,16.748C125.464,17.322 126,17.273 126,16.689C126,16.412 126.075,16.14 126.167,16.083C126.273,16.017 126.333,16.551 126.333,17.564C126.333,19.522 126.788,20.128 126.859,18.263C126.875,17.837 126.976,17.141 127.084,16.716L127.28,15.943L127.386,16.471C127.709,18.086 128.14,15.208 127.928,12.86C127.799,11.442 127.733,11.289 127.429,11.705C127.153,12.082 126.731,10.932 126.899,10.261C126.959,10.022 126.923,9.668 126.819,9.474C126.459,8.8 126.339,9.531 126.311,12.583L126.283,15.583L126.161,13.534C126.094,12.406 125.997,11.441 125.944,11.388C125.732,11.176 125.373,11.503 125.242,12.027C125.115,12.538 125.096,12.497 125.01,11.513C124.887,10.109 124.5,9.906 124.5,11.246C124.5,11.774 124.433,12.145 124.347,12.092C124.263,12.04 124.188,11.178 124.18,10.177C124.164,8.247 124.09,7.833 123.758,7.833C123.612,7.833 123.519,8.385 123.443,9.708M203.435,8.095C203.38,8.239 203.328,9.177 203.32,10.178C203.312,11.18 203.237,12 203.153,12C203.069,12 203,11.619 203,11.153C203,9.941 202.61,10.154 202.493,11.43C202.409,12.356 202.338,12.382 202.089,11.583C201.959,11.169 201.5,11.288 201.5,11.736C201.5,13.063 201.237,12.482 201.167,11C201.073,9.038 200.817,8.737 200.632,10.372C200.567,10.946 200.458,11.754 200.389,12.167L200.264,12.917L200.174,12.263C199.877,10.117 199.358,13.124 199.585,15.681C199.696,16.936 199.888,17.319 200.113,16.732C200.293,16.264 200.571,16.967 200.665,18.128C200.783,19.576 201.072,19.522 201.132,18.042C201.176,16.957 201.36,16.498 201.538,17.03C201.658,17.391 202.118,17.036 202.258,16.473C202.385,15.962 202.404,16.003 202.49,16.987C202.603,18.276 203,18.622 203,17.431C203,17.01 203.075,16.667 203.167,16.667C203.258,16.667 203.34,17.135 203.349,17.708C203.357,18.281 203.38,18.938 203.4,19.167C203.419,19.396 203.45,19.827 203.468,20.125C203.552,21.54 203.951,20.64 204.057,18.792C204.399,12.855 204.032,6.54 203.435,8.095M278.497,8.458C278.496,8.802 278.449,10.364 278.393,11.93C278.24,16.193 278.456,20.7 278.81,20.632C279.034,20.589 279.105,20.252 279.205,18.748C279.347,16.609 279.453,16.052 279.481,17.306C279.508,18.542 279.899,18.386 279.967,17.112C280.011,16.265 280.333,15.71 280.333,16.48C280.333,16.944 280.811,17.301 281.016,16.989C281.362,16.464 281.121,11.417 280.75,11.417C280.51,11.417 280.402,11.545 280.364,11.875C280.272,12.678 280.018,12.368 279.967,11.388C279.894,10.009 279.507,9.988 279.475,11.361L279.451,12.417L279.327,11.417C279.259,10.867 279.195,9.954 279.185,9.389C279.157,7.834 278.504,6.95 278.497,8.458M358.101,7.972C358.054,8.048 358.004,9.15 357.99,10.42C357.965,12.792 357.821,13.774 357.667,12.619C357.559,11.808 357.275,11.808 357.163,12.619C357.064,13.337 356.838,12.092 356.835,10.812C356.833,10.09 356.412,9.614 356.21,10.106C356.14,10.277 356.083,12.142 356.083,14.25C356.083,16.358 356.14,18.223 356.21,18.394C356.415,18.894 356.833,18.407 356.833,17.67C356.833,16.483 357.057,15.32 357.161,15.965C357.291,16.769 357.571,16.696 357.667,15.833C357.808,14.557 357.944,15.473 357.986,17.996C358.028,20.517 358.051,20.667 358.401,20.667C358.664,20.667 358.832,18.163 358.832,14.25C358.832,9.135 358.602,7.161 358.101,7.972M25.936,8.302C25.89,8.376 25.841,8.995 25.826,9.677C25.785,11.565 25.333,12.711 25.333,10.927C25.333,10.165 25.113,9.799 24.934,10.265C24.803,10.607 24.803,17.893 24.934,18.235C25.113,18.701 25.333,18.335 25.333,17.573C25.333,16.73 25.657,16.547 25.684,17.375C25.694,17.673 25.719,18.029 25.739,18.167C25.76,18.304 25.789,18.848 25.805,19.375C25.825,20.069 25.897,20.333 26.065,20.333C26.373,20.333 26.583,15.545 26.441,11.772C26.386,10.293 26.339,8.877 26.337,8.625C26.334,8.189 26.115,8.012 25.936,8.302M373.272,8.542C373.14,9.033 373.136,19.727 373.268,20.07C373.576,20.873 373.833,20.294 373.836,18.792C373.837,17.944 373.911,17.137 374,17C374.089,16.862 374.167,16.825 374.174,16.917C374.262,18.101 374.299,18.355 374.4,18.456C374.806,18.861 375.08,10.814 374.682,10.186C374.497,9.893 374.091,10.563 374.232,10.93C374.282,11.06 374.277,11.285 374.222,11.431C374.025,11.942 373.876,11.318 373.847,9.872C373.832,9.087 373.78,8.382 373.733,8.306C373.578,8.055 373.374,8.16 373.272,8.542M93.281,8.442C93.218,8.504 93.167,9.016 93.167,9.578C93.167,10.14 93.097,10.671 93.013,10.758C92.928,10.845 92.827,11.142 92.788,11.417C92.749,11.692 92.705,11.415 92.692,10.802C92.669,9.78 92.488,9.282 92.268,9.637C92.22,9.715 92.165,10.544 92.147,11.479C92.11,13.346 91.833,14.025 91.833,12.248C91.833,10.745 91.279,10.675 91.204,12.168C91.141,13.406 91.066,13.596 90.744,13.328C90.374,13.021 90.25,13.253 90.25,14.25C90.25,15.251 90.424,15.558 90.743,15.121C91.022,14.739 91.161,15.173 91.164,16.441C91.166,17.02 91.242,17.327 91.4,17.387C91.768,17.528 91.833,17.351 91.833,16.222C91.833,15.642 91.901,15.167 91.985,15.167C92.068,15.167 92.144,15.963 92.154,16.936C92.163,17.909 92.213,18.773 92.264,18.856C92.489,19.22 92.668,18.727 92.684,17.698C92.705,16.32 92.965,16.987 93.143,18.878C93.297,20.499 93.562,20.268 93.718,18.378C94.006,14.886 93.704,8.019 93.281,8.442M233.915,8.531C233.87,8.651 233.77,10.287 233.692,12.167L233.551,15.583L233.525,12.986C233.511,11.558 233.455,10.344 233.4,10.289C233.117,10.006 232.832,10.425 232.819,11.143C232.811,11.568 232.746,12.292 232.674,12.75L232.545,13.583L232.52,12.833C232.493,12.039 232.271,11.507 232.055,11.722C231.905,11.872 231.817,16.151 231.953,16.671C232.102,17.241 232.396,16.768 232.503,15.788C232.593,14.965 232.606,15.004 232.736,16.5C232.93,18.739 233.483,19.054 233.523,16.948C233.551,15.454 233.64,15.878 233.796,18.25C233.929,20.271 234.224,20.716 234.294,19C234.318,18.404 234.409,17.767 234.496,17.583C234.582,17.4 234.683,17.063 234.72,16.833C234.758,16.604 234.798,16.956 234.811,17.615C234.831,18.7 235.006,19.227 235.227,18.87C235.273,18.795 235.333,17.966 235.359,17.026C235.414,15.052 235.66,14.325 235.664,16.125C235.666,17.221 235.698,17.333 236,17.333C236.296,17.333 236.333,17.222 236.333,16.347C236.333,15.031 236.474,14.652 236.763,15.189L236.975,15.583L237.154,15.114C237.495,14.222 237.292,12.966 236.852,13.238C236.75,13.301 236.661,13.48 236.655,13.635C236.626,14.338 236.356,13.186 236.345,12.312C236.338,11.744 236.245,11.301 236.11,11.189C235.756,10.895 235.667,11.139 235.667,12.389C235.667,14.135 235.464,13.592 235.384,11.63C235.28,9.106 234.858,8.562 234.807,10.885C234.792,11.544 234.749,11.821 234.711,11.5C234.674,11.179 234.573,10.845 234.488,10.758C234.403,10.671 234.333,10.132 234.333,9.56C234.333,8.592 234.104,8.028 233.915,8.531M248.278,8.444C248.217,8.506 248.167,9.068 248.167,9.694C248.167,10.343 248.095,10.833 248,10.833C247.908,10.833 247.82,11.115 247.803,11.458C247.787,11.802 247.731,11.521 247.678,10.833C247.534,8.929 247.261,9.395 247.167,11.707C247.086,13.684 246.841,13.953 246.836,12.069C246.833,11.129 246.724,10.912 246.39,11.189C246.25,11.305 246.167,11.736 246.167,12.344C246.167,13.266 245.981,13.707 245.75,13.333C245.527,12.973 245.333,13.387 245.336,14.218C245.339,15.296 245.587,15.793 245.766,15.081C245.94,14.386 246.14,14.953 246.155,16.188C246.174,17.729 246.823,17.957 246.846,16.431C246.879,14.164 247.126,14.179 247.146,16.448C247.165,18.615 247.293,19.303 247.59,18.823C247.651,18.723 247.701,18.178 247.7,17.612C247.698,16.234 247.985,17.018 248.142,18.82C248.545,23.439 249.065,15.67 248.725,10.109C248.623,8.442 248.55,8.172 248.278,8.444M327.866,8.534C327.756,8.644 327.667,9.164 327.667,9.69C327.667,10.216 327.592,10.693 327.5,10.75C327.403,10.81 327.333,10.647 327.333,10.364C327.333,9.726 326.915,9.336 326.781,9.849C326.663,10.3 326.657,18.314 326.774,18.717C326.927,19.242 327.333,18.699 327.333,17.97C327.333,17.575 327.4,17.355 327.5,17.417C327.592,17.473 327.668,18.021 327.669,18.635C327.672,19.864 327.879,20.435 328.164,20C328.361,19.7 328.392,8.85 328.197,8.543C328.094,8.382 328.02,8.38 327.866,8.534M156.907,8.682C156.833,8.802 156.759,9.316 156.743,9.825C156.698,11.245 156.685,11.299 156.477,10.942C156.379,10.772 156.34,10.425 156.391,10.171C156.49,9.675 156.125,8.986 155.889,9.223C155.718,9.393 155.713,19.102 155.883,19.272C156.136,19.525 156.394,18.978 156.358,18.266C156.318,17.491 156.569,17.096 156.747,17.656C156.804,17.836 156.834,18.349 156.814,18.795C156.772,19.707 156.947,20.185 157.185,19.809C157.264,19.685 157.328,17.183 157.328,14.25C157.328,9.233 157.245,8.135 156.907,8.682M170.268,8.764C170.102,9.196 170.157,19.561 170.327,19.829C170.586,20.238 170.74,19.867 170.7,18.928C170.63,17.248 171.098,16.838 171.203,18.487C171.251,19.245 171.562,19.586 171.705,19.038C171.828,18.568 171.761,9.372 171.634,9.245C171.377,8.988 171.167,9.407 171.167,10.177C171.167,10.629 171.093,11 171.003,11C170.784,11 170.607,10.248 170.722,9.806C170.92,9.05 170.514,8.121 170.268,8.764M252.107,8.75C252.048,8.902 251.999,9.752 251.997,10.639C251.996,11.525 251.922,12.362 251.833,12.5C251.718,12.678 251.671,12.484 251.669,11.825C251.667,10.996 251.474,10.5 251.153,10.5C250.953,10.5 250.795,14.303 250.918,16.181C251.065,18.443 251.662,18.852 251.669,16.695C251.671,16.131 251.716,15.986 251.833,16.167C251.922,16.304 251.996,17.181 251.997,18.115C252,19.697 252.162,20.353 252.399,19.735C252.455,19.591 252.499,17.098 252.497,14.195C252.495,9.328 252.399,7.988 252.107,8.75M311.919,8.698C311.876,8.818 311.821,9.398 311.796,9.987C311.764,10.726 311.678,11.081 311.516,11.134C311.329,11.196 311.302,11.062 311.385,10.462C311.487,9.713 311.184,8.928 310.901,9.21C310.742,9.369 310.732,19.121 310.89,19.279C311.153,19.542 311.391,18.955 311.356,18.128C311.321,17.31 311.336,17.274 311.567,17.599C311.703,17.79 311.838,18.372 311.866,18.892C311.962,20.677 312.248,19.979 312.333,17.75C312.402,15.961 312.655,15.23 312.664,16.792C312.666,16.998 312.723,17.166 312.792,17.164C313.132,17.157 313.301,16.829 313.433,15.917L313.578,14.917L313.664,16.167C313.768,17.683 314.064,17.814 314.133,16.375C314.174,15.512 314.5,14.8 314.5,15.573C314.5,15.97 314.868,16.072 315.109,15.744C315.747,14.87 315.222,12.04 314.565,12.812L314.25,13.181L314.167,12.171C314.055,10.821 313.77,10.888 313.667,12.289C313.585,13.389 313.333,13.105 313.333,11.914C313.333,11.5 312.913,11.236 312.729,11.534C312.665,11.637 312.562,12.553 312.499,13.569C312.395,15.246 312.382,15.105 312.359,12.052C312.336,9.026 312.193,7.933 311.919,8.698M391.44,8.616C391.381,8.674 391.333,9.235 391.333,9.861C391.333,10.487 391.263,11 391.177,11C391.091,11 390.988,11.281 390.95,11.625C390.911,11.969 390.901,11.636 390.927,10.885C390.96,9.937 390.91,9.466 390.764,9.345C390.406,9.048 390.334,9.328 390.319,11.069C390.299,13.362 390.055,15.041 390.022,13.113C390.003,11.967 389.965,11.816 389.708,11.866C389.534,11.9 389.407,12.089 389.391,12.336C389.378,12.564 389.359,12.844 389.35,12.958C389.321,13.323 389.04,13.183 388.932,12.75C388.667,11.695 388.338,12.526 388.338,14.25C388.338,15.974 388.667,16.805 388.932,15.75C389.084,15.142 389.248,15.238 389.426,16.042C389.642,17.014 389.9,16.866 390,15.712L390.083,14.75L390.206,15.417C390.274,15.783 390.33,16.773 390.331,17.615C390.333,18.458 390.4,19.188 390.481,19.238C390.788,19.428 391.032,18.848 390.921,18.194C390.837,17.694 390.87,17.522 391.066,17.447C391.277,17.365 391.328,17.563 391.368,18.633C391.44,20.524 391.731,20.206 391.872,18.083C392.003,16.106 392.116,15.39 392.147,16.347C392.158,16.676 392.214,16.992 392.272,17.05C392.445,17.222 392.994,16.846 392.906,16.615C392.861,16.498 392.894,16.106 392.979,15.743L393.133,15.083L393.15,16.028C393.179,17.651 393.667,18.188 393.667,16.597C393.667,15.387 393.808,15.011 394.068,15.532C394.371,16.14 394.736,16.009 394.853,15.25C394.942,14.669 394.972,14.632 395.082,14.965C395.238,15.435 395.535,15.364 395.687,14.821C395.792,14.445 395.801,14.442 395.817,14.778C395.853,15.574 396.667,16.158 396.667,15.389C396.667,14.737 396.922,15.44 396.999,16.305C397.127,17.738 397.491,17.473 397.76,15.753C397.858,15.119 397.872,15.106 398.065,15.466C398.381,16.057 398.5,15.724 398.5,14.25C398.5,12.777 398.381,12.443 398.066,13.032C397.88,13.381 397.856,13.348 397.745,12.579C397.509,10.955 397,10.718 397,12.232C397,13.225 396.878,13.458 396.576,13.045C396.315,12.688 395.839,13.014 395.823,13.562C395.812,13.91 395.809,13.91 395.661,13.542C395.451,13.018 395.245,13.074 395.041,13.708L394.867,14.25L394.848,13.583C394.814,12.436 394.036,12.116 393.983,13.229C393.951,13.928 393.701,12.802 393.683,11.875C393.654,10.324 393.193,10.935 393.149,12.583L393.127,13.417L392.962,12.5C392.706,11.082 392.184,10.956 392.142,12.302C392.106,13.452 391.876,11.542 391.851,9.885C391.835,8.773 391.7,8.356 391.44,8.616M96.988,10.278C96.976,12.04 96.809,12.897 96.62,12.175C96.564,11.96 96.558,11.584 96.607,11.341C96.697,10.888 96.282,10.329 96.038,10.574C95.88,10.732 95.88,17.769 96.038,17.927C96.254,18.142 96.687,17.622 96.659,17.18C96.644,16.943 96.646,16.525 96.663,16.25L96.695,15.75L96.851,16.25C96.937,16.525 96.991,17.407 96.972,18.21C96.936,19.679 97.197,20.531 97.412,19.649C97.616,18.816 97.429,8.782 97.208,8.708C97.052,8.656 96.997,9.045 96.988,10.278M230.111,8.778C229.973,8.916 229.963,19.375 230.101,19.735C230.328,20.328 230.501,19.724 230.517,18.282C230.537,16.414 230.706,15.61 230.901,16.455C230.969,16.75 230.98,17.134 230.925,17.306C230.82,17.639 231.251,18.138 231.462,17.926C231.62,17.768 231.619,10.73 231.461,10.573C231.205,10.316 230.817,10.88 230.922,11.356C230.978,11.614 230.974,11.987 230.911,12.185C230.684,12.899 230.505,12.105 230.503,10.375C230.5,8.81 230.417,8.472 230.111,8.778M331.611,8.778C331.473,8.916 331.463,19.375 331.601,19.735C331.836,20.349 332.001,19.7 332.012,18.115C332.023,16.42 332.297,14.962 332.322,16.464C332.333,17.131 332.663,17.56 332.947,17.275C333.413,16.809 333.135,10.996 332.653,11.122C332.406,11.187 332.333,11.355 332.333,11.863C332.333,12.258 332.267,12.479 332.167,12.417C332.072,12.358 332,11.526 332,10.49C332,8.821 331.92,8.469 331.611,8.778M150.952,12.042C150.822,16.283 150.989,19.583 151.333,19.583C151.535,19.583 151.599,19.231 151.667,17.75L151.75,15.917L151.884,17.25C151.957,17.983 152.032,18.733 152.05,18.917C152.121,19.627 152.419,19.122 152.467,18.21C152.515,17.308 152.833,16.499 152.833,17.28C152.833,17.664 153.273,18.116 153.462,17.927C153.632,17.757 153.614,10.725 153.443,10.556C153.366,10.479 153.127,10.638 152.911,10.908L152.518,11.4L152.467,10.365C152.39,8.782 152.099,9.041 151.963,10.815C151.797,12.972 151.667,12.919 151.667,10.694C151.667,8.994 151.64,8.833 151.358,8.833C151.072,8.833 151.042,9.066 150.952,12.042M175.944,8.944C175.883,9.006 175.833,9.843 175.833,10.806C175.833,12.931 175.7,12.935 175.537,10.815C175.405,9.097 175.114,8.769 175.033,10.248C174.977,11.277 174.931,11.324 174.499,10.792C174.332,10.585 174.133,10.479 174.056,10.556C173.898,10.713 173.862,17.75 174.018,17.907C174.257,18.146 174.667,17.772 174.667,17.316C174.667,16.271 174.988,16.907 175.034,18.042C175.106,19.801 175.391,19.52 175.583,17.5L175.75,15.75L175.833,17.665C175.902,19.24 175.964,19.589 176.182,19.63C176.524,19.696 176.714,15.583 176.554,11.542C176.452,8.95 176.355,8.534 175.944,8.944M26.771,9.423C26.602,9.863 26.656,18.892 26.829,19.165C27.201,19.753 27.326,19.094 27.505,15.621C27.513,15.459 27.591,15.37 27.677,15.423C27.764,15.477 27.79,15.696 27.736,15.911C27.597,16.468 27.996,17.219 28.181,16.746C28.37,16.262 28.356,12.126 28.164,11.833C27.979,11.551 27.674,11.85 27.669,12.319C27.668,12.449 27.61,12.5 27.542,12.431C27.473,12.363 27.379,11.625 27.333,10.792C27.254,9.352 27.018,8.778 26.771,9.423M189.249,9.358C189.014,9.971 189.249,19.25 189.5,19.25C189.701,19.25 189.77,18.889 189.854,17.417C189.978,15.22 190.019,15.022 190.15,15.987C190.443,18.146 190.943,15.508 190.726,12.947C190.608,11.555 190.315,11.285 190.163,12.43L190.077,13.083L189.955,12.521C189.888,12.211 189.833,11.414 189.833,10.75C189.833,9.557 189.488,8.735 189.249,9.358M281.439,9.419C281.276,9.842 281.319,18.886 281.485,19.148C281.721,19.521 282.05,18.733 281.928,18.083C281.778,17.287 282.318,16.235 282.547,16.875C282.83,17.667 283.104,14.687 282.924,12.77C282.793,11.371 282.482,11.105 282.331,12.263C282.264,12.777 282.204,12.546 282.05,11.185C281.856,9.474 281.648,8.873 281.439,9.419M372.444,9.278C372.383,9.339 372.333,9.949 372.333,10.633C372.333,11.318 372.24,12.187 372.125,12.564L371.917,13.25L371.833,12.5C371.715,11.434 371.433,11.641 371.327,12.872C371.242,13.877 371.168,13.902 370.896,13.017C370.842,12.839 370.726,12.876 370.412,13.171L370,13.558L370,12.696C370,12.04 369.94,11.833 369.75,11.833C369.565,11.833 369.5,12.028 369.5,12.583C369.5,12.996 369.425,13.333 369.333,13.333C369.242,13.333 369.166,12.902 369.164,12.375C369.159,10.443 368.597,10.547 368.426,12.511C368.306,13.879 368.12,14.221 368.136,13.042C368.146,12.347 367.932,11.846 367.717,12.06C367.542,12.236 367.511,16.082 367.683,16.36C367.865,16.654 368.067,16.41 368.093,15.867C368.15,14.667 368.227,14.701 368.398,16C368.654,17.957 369.045,17.999 369.171,16.083C369.26,14.713 369.453,14.669 369.536,16C369.601,17.035 369.899,16.943 370,15.856C370.083,14.962 370.084,14.961 370.401,15.314C370.817,15.776 371,15.76 371,15.26C371,15.036 371.075,14.807 371.167,14.75C371.27,14.686 371.333,14.994 371.333,15.56C371.333,16.062 371.379,16.591 371.434,16.735C371.622,17.224 371.833,16.818 371.844,15.948C371.862,14.493 372.195,15.642 372.314,17.57C372.475,20.171 372.763,19.785 372.897,16.787C373.015,14.132 372.867,9.167 372.669,9.167C372.607,9.167 372.506,9.217 372.444,9.278M386.605,9.708C386.434,10.348 386.492,18.729 386.669,19C386.912,19.37 387.143,18.937 387.078,18.234C387.049,17.928 387.089,17.469 387.165,17.214L387.305,16.75L387.319,17.188C387.337,17.741 387.79,18.173 387.998,17.836C388.189,17.528 388.176,10.948 387.984,10.653C387.86,10.461 387.771,10.494 387.509,10.832C387.132,11.319 386.881,10.997 387.065,10.263C387.173,9.833 387.049,9.333 386.835,9.333C386.764,9.333 386.66,9.502 386.605,9.708M129.366,9.701C129.245,9.822 129.166,10.427 129.164,11.242C129.161,12.716 128.96,13.309 128.644,12.772C128.339,12.252 128.172,12.775 128.172,14.25C128.172,15.734 128.314,16.175 128.659,15.76C129.03,15.312 129.167,15.65 129.167,17.021C129.167,18.459 129.438,19.369 129.681,18.746C129.852,18.31 129.866,9.976 129.697,9.709C129.594,9.548 129.52,9.547 129.366,9.701M284.331,9.838C284.2,10.083 284.155,10.626 284.206,11.34C284.297,12.613 284.123,13.143 283.724,12.812C283.341,12.494 283.172,12.909 283.171,14.167C283.171,15.725 283.288,16.092 283.675,15.743C284.115,15.344 284.288,15.808 284.227,17.23C284.176,18.435 284.408,19.246 284.682,18.814C284.762,18.687 284.828,16.633 284.828,14.25C284.828,9.909 284.735,9.083 284.331,9.838M119.776,9.779C119.633,9.923 119.633,18.577 119.776,18.721C120.004,18.948 120.333,18.436 120.335,17.855C120.338,16.619 120.561,15.342 120.661,15.987C120.956,17.882 121.474,15.229 121.248,12.978C121.119,11.695 120.81,11.494 120.663,12.596C120.569,13.3 120.333,11.857 120.333,10.579C120.333,10.051 119.993,9.563 119.776,9.779M197.781,9.774C197.612,9.943 197.647,18.377 197.817,18.646C198.142,19.159 198.333,18.61 198.333,17.167C198.333,15.68 198.538,15.144 198.875,15.747C199.159,16.255 199.328,15.696 199.328,14.25C199.328,12.738 199.154,12.233 198.838,12.825C198.529,13.402 198.423,13.099 198.333,11.374C198.257,9.911 198.1,9.456 197.781,9.774M274.766,9.789C274.605,9.95 274.652,18.638 274.814,18.738C275.113,18.923 275.297,18.381 275.431,16.917C275.507,16.092 275.596,15.642 275.63,15.917C275.788,17.19 276.188,16.863 276.285,15.381C276.443,12.982 275.945,10.693 275.661,12.513C275.566,13.121 275.333,11.625 275.333,10.41C275.333,9.908 275.006,9.55 274.766,9.789M354.267,10.487C354.125,11.564 354.161,18.388 354.311,18.631C354.543,19.006 354.791,18.557 354.866,17.625C354.954,16.541 355.053,16.365 355.406,16.658C355.775,16.964 355.854,16.428 355.798,14C355.751,11.963 355.742,11.918 355.382,11.955C354.997,11.995 354.898,11.726 354.793,10.346C354.726,9.453 354.393,9.542 354.267,10.487M121.601,10.794C121.442,12.203 121.497,18.225 121.671,18.507C121.959,18.973 122.165,18.411 122.275,16.857C122.336,16.005 122.443,15.408 122.515,15.524C122.586,15.639 122.609,15.792 122.565,15.864C122.521,15.935 122.575,16.162 122.685,16.368C123.011,16.977 123.142,16.359 123.152,14.167C123.164,11.845 122.942,11.235 122.578,12.583C122.466,12.995 122.411,12.807 122.263,11.513C122.054,9.682 121.763,9.366 121.601,10.794M205.438,9.965C205.393,10.038 205.303,10.749 205.239,11.545C205.131,12.88 204.833,13.451 204.833,12.323C204.833,11.745 204.582,11.672 204.438,12.208C204.278,12.807 204.323,16.225 204.494,16.497C204.618,16.693 204.699,16.628 204.887,16.181C205.123,15.621 205.124,15.623 205.243,17.059C205.361,18.473 205.559,18.935 205.852,18.48C206.009,18.236 206.042,10.471 205.888,10.07C205.789,9.81 205.566,9.759 205.438,9.965M276.608,10.852C276.548,11.419 276.5,12.948 276.5,14.25C276.5,18.498 276.87,19.972 277.27,17.32C277.5,15.795 277.486,15.829 277.686,16.329C277.82,16.666 277.879,16.697 278.006,16.496C278.177,16.226 278.227,12.519 278.066,12.098C277.925,11.732 277.667,11.938 277.667,12.417C277.667,12.635 277.592,12.86 277.5,12.917C277.397,12.98 277.33,12.68 277.324,12.135C277.3,9.985 276.793,9.076 276.608,10.852M55.371,10.362C55.243,10.49 55.212,10.885 55.279,11.528C55.365,12.347 55.339,12.5 55.117,12.5C54.926,12.5 54.838,12.307 54.801,11.805C54.706,10.506 54.373,10.886 54.243,12.441C54.127,13.841 54.257,17.313 54.433,17.489C54.592,17.648 54.828,17.085 54.831,16.542C54.833,16.162 54.911,16 55.095,16C55.308,16 55.349,16.183 55.317,16.971C55.274,18.025 55.435,18.537 55.685,18.143C55.865,17.859 55.876,10.658 55.697,10.376C55.596,10.218 55.518,10.215 55.371,10.362M76.271,10.338C76.226,10.473 76.141,11.164 76.081,11.873C75.977,13.098 75.955,13.154 75.638,12.985C75.155,12.726 75.083,12.889 75.083,14.25C75.083,15.611 75.155,15.774 75.638,15.515C75.955,15.346 75.977,15.402 76.081,16.627C76.285,19.045 76.646,18.87 76.687,16.333C76.701,15.463 76.744,14.915 76.783,15.117C76.853,15.478 77.424,15.798 77.63,15.592C77.688,15.534 77.766,15.002 77.804,14.409C77.881,13.188 77.708,12.84 77.082,12.959C76.67,13.038 76.667,13.029 76.664,11.811C76.662,10.599 76.448,9.799 76.271,10.338M94.1,10.289C93.971,10.418 93.969,17.725 94.097,18.059C94.298,18.584 94.667,18.14 94.679,17.357C94.708,15.514 95.072,14.645 95.146,16.243C95.17,16.768 95.483,17.254 95.521,16.825C95.618,15.734 95.608,12.038 95.509,11.769C95.34,11.314 94.925,12.002 95.078,12.483C95.131,12.65 95.118,12.928 95.049,13.102C94.901,13.473 94.699,12.404 94.679,11.143C94.668,10.424 94.383,10.006 94.1,10.289M249.084,10.53C248.855,11.462 249.074,18.25 249.333,18.25C249.471,18.25 249.598,18.1 249.616,17.917C249.634,17.733 249.696,17.076 249.755,16.457C249.858,15.351 250.212,14.987 250.139,16.061C250.12,16.355 250.164,16.695 250.239,16.816C250.535,17.295 250.662,16.529 250.662,14.25C250.662,11.975 250.535,11.205 250.24,11.682C250.166,11.802 250.122,12.179 250.142,12.52C250.215,13.757 249.861,13.32 249.754,12.043C249.695,11.332 249.633,10.644 249.615,10.514C249.561,10.111 249.184,10.122 249.084,10.53M323.114,10.275C323.051,10.338 322.999,10.695 322.998,11.069C322.994,12.503 322.831,13.006 322.402,12.898C321.918,12.777 321.793,13.172 321.866,14.59C321.915,15.547 321.933,15.582 322.355,15.555C322.838,15.523 322.994,15.983 322.998,17.448C323,18.176 323.225,18.523 323.399,18.069C323.455,17.924 323.5,17.406 323.5,16.917C323.5,15.731 323.61,15.479 324.077,15.597C324.406,15.679 324.465,15.612 324.558,15.054C324.791,13.643 324.548,12.707 324.023,12.988C323.675,13.174 323.508,12.622 323.499,11.25C323.495,10.553 323.308,10.081 323.114,10.275M328.625,10.784C328.499,11.788 328.573,18.129 328.713,18.268C328.946,18.501 329.21,18.03 329.252,17.303C329.276,16.907 329.36,16.208 329.439,15.75L329.583,14.917L329.666,15.878C329.835,17.821 330.083,16.852 330.083,14.25C330.083,11.645 329.837,10.685 329.665,12.622L329.579,13.583L329.448,12.917C329.376,12.55 329.264,11.806 329.2,11.263C329.065,10.118 328.743,9.85 328.625,10.784M21.101,10.597C21.046,10.742 21,11.091 21,11.373C21,11.869 20.99,11.876 20.677,11.593C20.089,11.06 20,11.396 20,14.163C20,17.277 20.032,17.43 20.599,17.058C21.028,16.776 21.07,16.832 21.009,17.609C20.974,18.047 21.316,18.296 21.516,17.98C21.852,17.45 21.682,10.333 21.333,10.333C21.261,10.333 21.157,10.452 21.101,10.597M59.075,10.546C58.883,11.046 59.083,18.056 59.292,18.125C59.427,18.17 59.5,18.02 59.5,17.694C59.5,16.814 59.654,16.614 60.003,17.044C60.169,17.249 60.367,17.354 60.444,17.278C60.602,17.12 60.638,11.416 60.482,11.26C60.263,11.04 59.832,11.393 59.812,11.809C59.8,12.052 59.717,11.819 59.626,11.292C59.47,10.379 59.252,10.084 59.075,10.546M88.422,10.708C88.376,10.915 88.348,11.196 88.362,11.333C88.434,12.084 88.29,13.713 88.184,13.334C88.029,12.774 87.509,12.684 87.372,13.194C87.278,13.541 87.246,13.511 87.077,12.917C86.842,12.095 86.607,12.06 86.512,12.833C86.452,13.324 86.412,13.231 86.26,12.25C85.988,10.49 85.621,10.636 85.46,12.568C85.336,14.053 85.167,14.698 85.167,13.684C85.167,13.231 85.111,13.154 84.815,13.198C84.543,13.238 84.42,13.121 84.273,12.679C83.854,11.42 83.498,12.097 83.502,14.146C83.506,16.444 83.855,17.102 84.314,15.674C84.501,15.095 84.575,15.009 84.7,15.231C84.895,15.581 85.162,15.425 85.183,14.948C85.219,14.164 85.467,15.401 85.483,16.448C85.511,18.175 86.042,17.983 86.259,16.167C86.376,15.191 86.401,15.138 86.509,15.633C86.715,16.585 86.828,16.543 87.087,15.417C87.198,14.935 87.208,14.931 87.346,15.292C87.515,15.733 87.712,15.764 88.071,15.405C88.31,15.167 88.334,15.261 88.336,16.446C88.339,17.783 88.488,18.297 88.815,18.095C88.927,18.025 89,17.423 89,16.562C89,15.255 89.021,15.164 89.269,15.412C89.759,15.902 89.917,15.619 89.917,14.25C89.917,12.881 89.759,12.598 89.269,13.088C89.021,13.336 89,13.258 89,12.109C89,10.487 88.658,9.658 88.422,10.708M105.607,10.449C105.548,10.508 105.5,10.856 105.5,11.223L105.5,11.891L105.114,11.529C104.563,11.011 104.559,11.017 104.436,12.649C104.191,15.897 104.563,17.93 105.23,16.978C105.468,16.638 105.481,16.653 105.531,17.353C105.594,18.237 105.896,18.254 105.969,17.378C106.022,16.753 106.333,16.172 106.333,16.699C106.333,16.986 106.769,17.226 107.015,17.074C107.21,16.954 107.209,11.825 107.014,11.517C106.74,11.084 106.356,11.449 106.296,12.199C106.246,12.832 106.223,12.774 106.098,11.705C105.962,10.541 105.836,10.219 105.607,10.449M109.272,10.783C109.143,11.437 109.225,17.947 109.364,18.086C109.64,18.362 109.833,17.904 109.833,16.976C109.833,15.962 110.192,15.604 110.297,16.513C110.555,18.75 110.828,17.63 110.828,14.333C110.828,12.729 110.767,11.319 110.691,11.2C110.481,10.869 110.17,11.33 110.214,11.908C110.234,12.168 110.16,12.412 110.05,12.451C109.911,12.501 109.835,12.203 109.8,11.483C109.747,10.388 109.432,9.97 109.272,10.783M217.745,10.507C217.686,10.603 217.654,10.997 217.675,11.382C217.724,12.323 217.696,12.5 217.5,12.5C217.408,12.5 217.333,12.308 217.333,12.072C217.333,11.447 217.007,10.887 216.818,11.186C216.618,11.501 216.625,17.288 216.825,17.411C217.035,17.541 217.333,16.964 217.333,16.428C217.333,15.52 217.653,16.055 217.7,17.042C217.738,17.834 217.81,18.083 218,18.083C218.253,18.083 218.466,11.678 218.246,10.708C218.155,10.311 217.924,10.218 217.745,10.507M221.589,10.491C221.534,10.581 221.485,11.229 221.482,11.931C221.474,13.281 221.225,13.451 221.136,12.167C221.092,11.545 221.026,11.417 220.75,11.417C220.434,11.417 220.414,11.544 220.369,13.917C220.306,17.191 220.418,17.594 221.195,16.891C221.485,16.629 221.5,16.644 221.5,17.211C221.5,17.538 221.548,17.931 221.607,18.084C221.762,18.489 221.994,18.063 221.997,17.366C222,16.829 222.01,16.822 222.37,17.074C222.933,17.468 222.946,17.444 223.069,15.777C223.308,12.515 222.948,10.583 222.279,11.542C222.023,11.909 222.017,11.902 222.009,11.218C222,10.534 221.789,10.168 221.589,10.491M238.639,10.542C238.6,10.829 238.565,11.397 238.505,12.667C238.477,13.262 238.423,13.588 238.384,13.389C238.3,12.958 237.832,12.735 237.641,13.036C237.455,13.329 237.464,15.458 237.652,15.574C237.942,15.753 238.314,15.469 238.368,15.028C238.398,14.783 238.478,15.366 238.547,16.322C238.73,18.859 239.151,18.867 239.175,16.333C239.184,15.313 239.23,15.022 239.339,15.292C239.518,15.739 239.919,15.781 240.147,15.375C240.323,15.061 240.418,15.192 240.532,15.905C240.611,16.401 240.902,16.307 241.01,15.75C241.09,15.338 241.134,15.439 241.262,16.331C241.48,17.854 241.995,18.008 242.01,16.554C242.021,15.394 242.282,13.878 242.314,14.782C242.337,15.414 242.581,15.624 242.811,15.212C242.985,14.901 243.192,15.227 243.355,16.07C243.457,16.599 243.782,16.548 243.895,15.986C244.305,13.935 243.743,10.883 243.286,12.678C243.103,13.399 242.878,13.645 242.738,13.279C242.579,12.864 242.336,13.114 242.312,13.718C242.28,14.539 242.028,12.979 242.012,11.863C241.993,10.486 241.472,10.699 241.262,12.169C241.134,13.061 241.09,13.162 241.01,12.75C240.882,12.09 240.625,12.114 240.484,12.8C240.36,13.409 240.167,13.706 240.167,13.288C240.167,12.907 239.895,12.788 239.503,12.998C239.181,13.171 239.167,13.131 239.167,12.019C239.167,11.382 239.121,10.742 239.066,10.597C238.945,10.283 238.678,10.248 238.639,10.542M260.611,10.444C260.55,10.506 260.497,10.899 260.493,11.319L260.487,12.083L260.238,11.625C259.769,10.761 259.557,11.051 259.44,12.713C259.207,16.028 259.647,18.338 260.217,16.792L260.417,16.25L260.5,17.167C260.618,18.459 260.888,18.305 261.081,16.833C261.222,15.763 261.253,15.683 261.298,16.277C261.351,16.966 261.72,17.347 262.032,17.035C262.374,16.693 262.109,11.417 261.75,11.417C261.479,11.417 261.401,11.556 261.331,12.167L261.245,12.917L261.123,12.102C261.055,11.654 261,11.072 261,10.81C261,10.353 260.847,10.209 260.611,10.444M359.075,10.546C358.883,11.046 359.083,18.056 359.292,18.125C359.436,18.173 359.504,17.972 359.512,17.472C359.525,16.676 359.799,15.76 359.822,16.438C359.835,16.851 360.241,17.244 360.493,17.088C360.809,16.892 360.721,11.51 360.4,11.387C360.103,11.273 359.821,11.606 359.943,11.926C359.987,12.04 359.946,12.18 359.853,12.238C359.696,12.335 359.434,11.453 359.508,11.077C359.627,10.472 359.271,10.035 359.075,10.546M378.111,10.444C378.05,10.506 378,11.381 378,12.389C378,14.287 377.901,14.656 377.765,13.265C377.677,12.366 377.615,12.254 377.281,12.382C376.75,12.586 376.756,15.917 377.288,16.121C377.63,16.252 377.822,15.879 377.864,15C377.884,14.588 377.941,15.106 377.992,16.153C378.082,18.02 378.5,19.162 378.5,17.542C378.5,16.764 378.621,16.597 378.948,16.925C379.574,17.55 379.655,17.196 379.615,14C379.582,11.278 379.599,11.333 378.833,11.522C378.651,11.567 378.569,11.415 378.532,10.958C378.482,10.361 378.353,10.203 378.111,10.444M34.333,10.75C34.333,10.887 34.258,11 34.167,11C34.075,11 34,10.887 34,10.75C34,10.612 34.075,10.5 34.167,10.5C34.258,10.5 34.333,10.612 34.333,10.75M47.606,10.792C47.485,11.218 47.519,17.533 47.644,17.869C47.716,18.063 47.825,18.108 47.983,18.011C48.203,17.874 48.245,17.664 48.307,16.375C48.343,15.629 48.635,15.691 48.698,16.458C48.839,18.161 49.083,16.761 49.083,14.25C49.083,11.739 48.839,10.339 48.698,12.042C48.617,13.018 48.384,12.776 48.256,11.583C48.142,10.516 47.802,10.102 47.606,10.792M210.111,10.611C209.973,10.749 209.962,17.907 210.1,18.044C210.351,18.296 210.667,17.919 210.676,17.357C210.682,17.023 210.748,16.45 210.824,16.083L210.962,15.417L210.983,16.083C211.007,16.812 211.238,17.318 211.449,17.106C211.636,16.919 211.668,11.77 211.484,11.484C211.258,11.133 211.01,11.593 210.983,12.417C210.952,13.346 210.715,12.448 210.686,11.292C210.668,10.545 210.443,10.279 210.111,10.611M330.434,12.866C330.308,15.816 330.474,17.917 330.833,17.917C331.495,17.917 331.471,10.66 330.809,10.535C330.569,10.489 330.523,10.777 330.434,12.866M351.444,10.611C351.383,10.672 351.332,11.066 351.331,11.486C351.327,12.724 351.103,13.268 351,12.288C350.813,10.497 350.583,11.577 350.583,14.25C350.583,16.923 350.813,18.003 351,16.212C351.096,15.293 351.327,15.745 351.331,16.861C351.339,18.874 351.942,18.327 352.082,16.181C352.304,12.785 351.992,10.063 351.444,10.611M168.44,11.083C168.381,11.236 168.327,11.861 168.32,12.472C168.309,13.396 168.28,13.508 168.144,13.139C167.908,12.494 167.526,12.412 167.311,12.962C167.15,13.375 167.206,15.761 167.381,15.937C167.535,16.091 167.994,15.783 168.119,15.443C168.213,15.184 168.273,15.399 168.333,16.211C168.379,16.831 168.492,17.338 168.583,17.338C168.675,17.338 168.787,16.831 168.833,16.211C168.918,15.069 169.159,15.236 169.164,16.441C169.167,16.984 169.617,17.35 169.84,16.99C170.024,16.692 170.04,11.544 169.858,11.432C169.524,11.225 169.166,11.543 169.15,12.059C169.113,13.217 168.867,13.44 168.847,12.333C168.827,11.178 168.632,10.581 168.44,11.083M194.93,10.978C194.492,11.687 194.722,17.542 195.192,17.632C195.595,17.709 195.833,12.611 195.508,10.875C195.487,10.766 195.009,10.851 194.93,10.978M5.934,11.264C5.879,11.409 5.822,12.027 5.808,12.639C5.795,13.25 5.753,13.549 5.715,13.304C5.587,12.466 4.836,12.252 4.831,13.052C4.829,13.252 4.756,13.529 4.667,13.667C4.535,13.87 4.505,13.848 4.503,13.552C4.499,13.006 4.193,12.921 4.065,13.43L3.954,13.874L3.735,13.354C3.296,12.31 2.833,12.77 2.833,14.25C2.833,15.746 3.292,16.183 3.752,15.125C3.943,14.684 3.988,14.651 3.993,14.948C4.004,15.536 4.327,15.572 4.442,14.998C4.564,14.387 4.827,14.635 4.831,15.365C4.837,16.513 5.626,15.987 5.711,14.778C5.749,14.237 5.783,14.486 5.803,15.445C5.819,16.285 5.879,17.091 5.934,17.236C6.132,17.752 6.333,17.488 6.336,16.708C6.337,16.273 6.411,15.804 6.5,15.667C6.618,15.483 6.662,15.604 6.664,16.119C6.667,16.793 7.1,17.345 7.395,17.05C7.562,16.882 7.517,11.53 7.347,11.425C7.043,11.237 6.667,11.859 6.664,12.554C6.662,13.065 6.619,13.183 6.5,13C6.411,12.862 6.337,12.356 6.336,11.875C6.333,11.024 6.14,10.729 5.934,11.264M52.443,11.24C52.279,11.669 52.315,17.047 52.485,17.314C52.763,17.753 52.98,16.96 52.881,15.868C52.777,14.719 52.931,14.567 53.386,15.368C53.872,16.221 54.326,14.044 53.896,12.923C53.772,12.601 53.167,13.032 53.167,13.442C53.167,13.566 53.081,13.667 52.976,13.667C52.842,13.667 52.815,13.349 52.884,12.604C52.989,11.483 52.697,10.58 52.443,11.24M73.264,11.274C73.21,11.413 73.167,12.752 73.167,14.25C73.167,17.138 73.221,17.533 73.597,17.388C73.762,17.325 73.834,17.013 73.836,16.357C73.839,15.315 74.061,14.753 74.315,15.146C74.587,15.569 74.833,15.156 74.831,14.282C74.828,13.178 74.621,12.796 74.325,13.349C74.037,13.888 73.861,13.447 73.845,12.143C73.833,11.209 73.487,10.692 73.264,11.274M78.917,11.332C78.859,11.514 78.844,11.721 78.884,11.79C78.924,11.86 78.859,12.179 78.741,12.5C78.578,12.942 78.522,12.995 78.513,12.718C78.497,12.262 78.236,12.08 78.101,12.431C77.813,13.18 78.027,16.439 78.351,16.239C78.433,16.188 78.506,15.945 78.513,15.698C78.531,15.042 78.97,16.206 78.987,16.958C79.009,17.876 79.439,17.625 79.559,16.625C79.916,13.648 79.437,9.694 78.917,11.332M112.273,11.116C112.215,11.174 112.162,11.828 112.156,12.569C112.149,13.449 112.098,13.799 112.008,13.578C111.523,12.381 111.083,12.701 111.083,14.25C111.083,15.695 111.223,15.911 111.757,15.291L112.153,14.831L112.201,16.124C112.265,17.821 112.569,17.735 112.632,16.001C112.686,14.514 113,14.149 113,15.573C113,16.533 113.114,16.739 113.508,16.495C113.853,16.281 113.845,12.213 113.499,11.999C113.122,11.766 113,11.969 113,12.833C113,13.281 112.925,13.693 112.833,13.75C112.728,13.815 112.667,13.366 112.667,12.52C112.667,11.291 112.542,10.847 112.273,11.116M134.006,11.322C133.911,11.5 133.833,12.02 133.833,12.479C133.833,12.938 133.758,13.36 133.667,13.417C133.565,13.48 133.5,13.227 133.5,12.77C133.5,11.952 133.234,11.59 133.082,12.202C132.922,12.842 133.067,16.42 133.25,16.379C133.342,16.358 133.454,15.983 133.5,15.546C133.607,14.525 133.85,14.86 133.859,16.041C133.866,16.913 134.051,17.5 134.319,17.5C134.546,17.5 134.706,14.509 134.576,12.682C134.457,11.006 134.333,10.71 134.006,11.322M158.773,11.116C158.715,11.174 158.661,11.716 158.655,12.319C158.643,13.483 158.368,13.326 158.345,12.143C158.333,11.523 157.9,11.123 157.661,11.51C157.492,11.783 157.469,16.711 157.636,16.964C157.884,17.341 158.333,17.006 158.336,16.441C158.341,15.236 158.582,15.069 158.667,16.211C158.774,17.663 159.059,17.663 159.167,16.211C159.227,15.399 159.287,15.184 159.381,15.443C159.767,16.499 160.333,15.79 160.333,14.25C160.333,12.678 159.909,12.072 159.429,12.958C159.187,13.404 159.18,13.385 159.173,12.302C159.167,11.265 159.03,10.859 158.773,11.116M193.055,11.208C192.822,11.579 192.893,17.127 193.134,17.367C193.465,17.698 193.661,17.241 193.664,16.135C193.667,15.015 193.958,14.675 194.032,15.705C194.146,17.278 194.417,16.253 194.417,14.25C194.417,12.15 194.166,11.37 194,12.954C193.901,13.9 193.668,13.546 193.664,12.445C193.66,11.23 193.389,10.679 193.055,11.208M214.94,11.116C214.881,11.174 214.833,11.772 214.833,12.444C214.833,13.148 214.763,13.667 214.667,13.667C214.575,13.667 214.5,13.296 214.5,12.843C214.5,11.359 213.964,11.58 213.716,13.167L213.546,14.25L213.521,13.333C213.485,12.075 213.268,11.765 212.943,12.511C212.745,12.966 212.691,13.009 212.68,12.722C212.643,11.723 212.099,11.504 211.927,12.419C211.713,13.559 211.849,16.517 212.12,16.621C212.432,16.74 212.656,16.393 212.681,15.75L212.701,15.25L212.876,15.797C213.134,16.602 213.405,16.36 213.502,15.237L213.587,14.25L213.722,15.362C213.914,16.941 214.5,17.157 214.5,15.649C214.5,15.211 214.575,14.807 214.667,14.75C214.772,14.685 214.833,15.134 214.833,15.98C214.833,17.258 214.996,17.744 215.273,17.296C215.345,17.18 215.387,16.56 215.366,15.918L215.329,14.75L215.75,15.25C216.297,15.899 216.495,15.633 216.495,14.25C216.495,12.876 216.286,12.596 215.747,13.25L215.335,13.75L215.334,12.468C215.333,11.285 215.206,10.849 214.94,11.116M288.917,12.167C288.791,13.418 288.5,13.768 288.5,12.667C288.5,11.948 288.232,11.762 288.08,12.375C287.899,13.099 288.07,16.385 288.292,16.459C288.438,16.507 288.5,16.301 288.5,15.764C288.5,14.904 288.822,14.701 288.853,15.542C288.864,15.84 288.859,16.156 288.841,16.244C288.763,16.639 289.036,17.5 289.239,17.5C289.589,17.5 289.798,13.506 289.547,11.625C289.405,10.559 289.047,10.866 288.917,12.167M320.104,11.257C319.96,11.632 319.996,17.013 320.145,17.391C320.328,17.858 320.6,17.42 320.744,16.424L320.864,15.599L321.157,15.987L321.45,16.376L321.556,15.98C321.851,14.877 321.544,11.447 321.24,12.458C321.057,13.068 320.868,12.891 320.721,11.972C320.581,11.098 320.293,10.764 320.104,11.257M2.199,11.368C2.09,11.477 1.995,11.795 1.988,12.075C1.972,12.764 1.761,13.288 1.602,13.031C1.234,12.435 0.95,13.612 1.119,15.036C1.209,15.799 1.23,15.827 1.513,15.571C1.795,15.316 1.818,15.338 1.917,15.942C2.307,18.334 2.662,17.528 2.662,14.25C2.662,11.538 2.574,10.993 2.199,11.368M164.719,11.359C164.619,11.482 164.485,11.902 164.421,12.292C164.291,13.077 164.22,13.135 163.905,12.708C163.706,12.438 163.678,12.448 163.528,12.833C163.349,13.295 163.291,13.205 163.051,12.096C162.679,10.372 162.339,11.367 162.336,14.188C162.332,17.295 162.793,18.475 163.101,16.149C163.217,15.274 163.397,15.103 163.565,15.708L163.669,16.083L163.978,15.684L164.288,15.285L164.41,16.101C164.757,18.431 165.143,17.455 165.143,14.25C165.143,11.63 165.045,10.957 164.719,11.359M252.775,12.042C252.497,14.355 252.717,17.333 253.166,17.333C253.611,17.333 253.802,14.878 253.558,12.292C253.418,10.809 252.941,10.657 252.775,12.042M325.804,12.244C325.728,13.423 325.569,13.749 325.301,13.27C325.042,12.807 324.838,13.237 324.838,14.25C324.838,15.271 325.04,15.689 325.311,15.228C325.599,14.738 325.828,15.242 325.831,16.375C325.833,17.115 325.89,17.333 326.083,17.333C326.221,17.333 326.335,17.315 326.336,17.292C326.587,13.571 326.49,11.167 326.089,11.167C325.94,11.167 325.851,11.504 325.804,12.244M346.748,11.337C346.69,11.431 346.654,11.862 346.669,12.295C346.719,13.759 346.7,13.807 346.318,13.18C345.855,12.42 345.672,12.722 345.672,14.25C345.672,15.763 345.837,16.037 346.306,15.304L346.661,14.75L346.664,15.948C346.666,17.041 346.846,17.543 347.131,17.258C347.28,17.109 347.386,12.418 347.256,11.726C347.152,11.169 346.948,11.013 346.748,11.337M29.781,11.775C29.718,11.838 29.667,12.214 29.667,12.611C29.667,13.405 29.592,13.468 29.137,13.057C28.691,12.653 28.583,12.884 28.583,14.25C28.583,15.525 28.703,15.863 29.036,15.531C29.419,15.148 29.647,15.324 29.699,16.042C29.818,17.687 30.086,16.634 30.13,14.346C30.172,12.14 30.082,11.474 29.781,11.775M49.442,12.451C49.174,14.067 49.381,16.667 49.777,16.667C50.019,16.667 50.059,16.59 50.257,15.75C50.378,15.236 50.398,15.255 50.574,16.048C50.703,16.634 51,16.477 51,15.823C51,15.554 51.075,15.333 51.167,15.333C51.337,15.333 51.392,15.542 51.346,16.016C51.31,16.398 51.762,16.75 51.933,16.473C52.087,16.224 52.099,12.043 51.946,11.891C51.736,11.681 51.357,12.201 51.37,12.68C51.397,13.63 51.158,13.507 50.926,12.452C50.773,11.758 50.502,12.075 50.484,12.968L50.468,13.75L50.276,12.835C50.035,11.691 49.6,11.49 49.442,12.451M57.929,12.793C57.733,12.989 57.655,12.69 57.782,12.228L57.913,11.75L57.969,12.224C58,12.484 57.982,12.74 57.929,12.793M61.893,12.086C61.839,12.225 61.83,12.521 61.873,12.744C61.918,12.978 61.863,13.184 61.744,13.229C61.619,13.277 61.498,13.116 61.439,12.821C61.201,11.632 60.838,12.496 60.838,14.25C60.838,15.984 61.167,16.804 61.435,15.738C61.565,15.218 61.788,15.398 61.862,16.083C61.896,16.392 62.012,16.583 62.167,16.583C62.375,16.583 62.424,16.188 62.463,14.208C62.503,12.149 62.475,11.833 62.249,11.833C62.106,11.833 61.946,11.947 61.893,12.086M102.611,11.944C102.409,12.147 102.484,16.47 102.692,16.599C102.975,16.774 103.342,16.174 103.228,15.723C103.171,15.493 103.205,15.333 103.312,15.333C103.412,15.333 103.542,15.524 103.6,15.757C103.849,16.749 104.083,16.019 104.083,14.25C104.083,12.582 103.799,11.585 103.638,12.686C103.608,12.89 103.478,13.092 103.35,13.134C103.178,13.191 103.143,13.11 103.216,12.829C103.372,12.234 102.945,11.61 102.611,11.944M114.938,12.089C114.88,12.238 114.825,12.598 114.816,12.889L114.798,13.417L114.608,12.805C114.17,11.405 113.965,12.007 114.035,14.486C114.086,16.302 114.305,16.791 114.624,15.797C114.792,15.273 114.8,15.269 114.816,15.695C114.853,16.664 115.395,17.061 115.594,16.265C115.993,14.679 115.397,10.892 114.938,12.089M134.912,12.037C134.69,12.613 134.913,16.583 135.167,16.583C135.33,16.583 135.421,16.411 135.43,16.083C135.457,15.115 135.472,15.09 135.823,15.407C136.315,15.853 136.5,15.584 136.5,14.42C136.5,12.989 136.396,12.725 135.978,13.103C135.584,13.46 135.474,13.35 135.442,12.567C135.417,11.942 135.078,11.604 134.912,12.037M154.833,12.407C154.833,13.144 154.55,13.32 154.323,12.724C154.183,12.353 154.117,12.31 153.993,12.506C153.822,12.776 153.775,15.487 153.934,15.902C154.066,16.247 154.333,16.073 154.333,15.643C154.333,15.124 154.742,15.372 154.806,15.93C154.837,16.197 154.95,16.522 155.056,16.651C155.406,17.075 155.633,14.351 155.394,12.607C155.266,11.671 154.833,11.516 154.833,12.407M172.107,12.601C171.895,14.146 172.053,16.667 172.361,16.667C172.519,16.667 172.577,16.532 172.739,15.792C172.861,15.238 173.123,15.19 173.197,15.708C173.338,16.705 173.588,15.924 173.631,14.348C173.681,12.533 173.494,11.889 173.167,12.75C172.959,13.296 172.718,13.15 172.638,12.43C172.549,11.638 172.224,11.743 172.107,12.601M192.088,11.993C192.028,12.09 192.023,12.308 192.076,12.478C192.263,13.066 192.012,13.396 191.636,13.055C191.173,12.637 191.006,12.983 191.003,14.365C191,15.579 191.179,15.858 191.674,15.41C192.061,15.06 192.274,15.385 192.103,16.065C192.041,16.313 192.094,16.537 192.245,16.662C192.609,16.965 192.692,16.399 192.634,14.009C192.586,12.061 192.422,11.453 192.088,11.993M224.455,11.95C224.413,12.023 224.325,12.308 224.259,12.583L224.138,13.083L223.883,12.598C223.48,11.831 223.314,12.398 223.369,14.357C223.416,16.036 223.666,16.69 223.902,15.75C223.961,15.514 224.086,15.367 224.178,15.424C224.271,15.481 224.306,15.657 224.256,15.814C224.119,16.247 224.606,16.83 224.83,16.5C225.072,16.145 224.975,11.963 224.724,11.88C224.617,11.845 224.497,11.876 224.455,11.95M257.605,12.125C257.479,12.564 257.565,16.454 257.704,16.593C257.905,16.794 258.333,16.32 258.333,15.896C258.333,15.678 258.408,15.5 258.5,15.5C258.592,15.5 258.667,15.646 258.667,15.823C258.667,16.243 258.936,16.408 259.066,16.069C259.353,15.32 259.139,12.061 258.816,12.261C258.734,12.312 258.667,12.536 258.667,12.76C258.667,12.998 258.57,13.167 258.432,13.167C258.284,13.167 258.228,13.05 258.281,12.85C258.447,12.212 257.785,11.5 257.605,12.125M289.963,11.95C289.746,12.381 289.93,16.583 290.167,16.583C290.341,16.583 290.424,16.39 290.442,15.947C290.473,15.153 290.582,15.039 290.971,15.39C291.411,15.789 291.5,15.595 291.5,14.232C291.5,12.982 291.356,12.654 290.998,13.085C290.662,13.491 290.522,13.374 290.468,12.638C290.421,12.008 290.132,11.614 289.963,11.95M309.948,11.941C309.885,12.004 309.833,12.264 309.833,12.518C309.833,13.16 309.535,13.281 309.323,12.724C309.033,11.96 308.838,12.573 308.838,14.25C308.838,15.902 309.003,16.45 309.321,15.856C309.589,15.355 309.833,15.414 309.833,15.98C309.833,16.646 310.282,17.014 310.42,16.461C310.746,15.163 310.366,11.523 309.948,11.941M347.603,12.358C347.481,12.972 347.607,16.496 347.758,16.647C347.951,16.84 348.333,16.104 348.348,15.51L348.363,14.917L348.522,15.5C348.816,16.579 348.831,16.605 349.006,16.329C349.202,16.02 349.212,12.496 349.018,12.191C348.846,11.919 348.746,12.063 348.584,12.82C348.483,13.287 348.433,13.339 348.305,13.11C348.219,12.956 348.194,12.758 348.249,12.669C348.365,12.481 348.055,11.833 347.848,11.833C347.771,11.833 347.661,12.069 347.603,12.358M349.44,12.458C349.307,13.268 349.333,15.63 349.482,16.166C349.692,16.919 350.107,16.771 350.226,15.901C350.495,13.944 350.291,11.833 349.833,11.833C349.628,11.833 349.514,12.015 349.44,12.458M80.814,12.667C80.611,13.343 80.445,13.482 80.239,13.149C80.037,12.822 79.838,13.368 79.838,14.25C79.838,15.264 80.042,15.693 80.302,15.228C80.483,14.905 80.833,15.47 80.833,16.084C80.833,16.424 81.182,16.578 81.349,16.313C81.514,16.054 81.555,12.67 81.399,12.264C81.23,11.823 81.024,11.965 80.814,12.667M318.278,12.111C318.217,12.172 318.159,12.678 318.149,13.236C318.133,14.145 318.112,14.202 317.95,13.792C317.85,13.54 317.66,13.333 317.528,13.333C317.395,13.333 317.196,13.209 317.084,13.056C316.813,12.686 316.334,12.885 316.33,13.37L316.326,13.75L316.021,13.354L315.717,12.958L315.611,13.354C315.289,14.554 315.609,15.692 316.089,15.058C316.29,14.793 316.323,14.788 316.328,15.021C316.337,15.502 316.833,15.787 317.078,15.452C317.193,15.295 317.408,15.167 317.557,15.167C317.709,15.167 317.883,14.967 317.955,14.708C318.059,14.338 318.099,14.458 318.167,15.333C318.249,16.408 318.671,16.91 318.796,16.083C318.949,15.068 319.005,14.963 319.27,15.183C319.632,15.484 319.828,15.119 319.831,14.135C319.833,13.303 319.63,13.018 319.257,13.328C319.015,13.528 318.991,13.484 318.762,12.458C318.662,12.008 318.498,11.891 318.278,12.111M207.948,12.958C207.906,13.119 207.872,12.987 207.872,12.667C207.872,12.346 207.906,12.215 207.948,12.375C207.99,12.535 207.99,12.798 207.948,12.958M22.033,12.533C21.824,12.742 21.746,15.412 21.934,15.903C22.158,16.485 22.667,16.08 22.667,15.32C22.667,14.935 22.925,14.897 23.064,15.261C23.209,15.638 23.496,15.389 23.521,14.865C23.54,14.47 23.563,14.491 23.717,15.042C24.081,16.341 24.724,15.708 24.651,14.122C24.586,12.73 24.187,12.335 23.812,13.292L23.632,13.75L23.484,13.364C23.331,12.964 23,13.006 23,13.427C23,13.559 22.925,13.667 22.833,13.667C22.742,13.667 22.667,13.485 22.667,13.264C22.667,12.445 22.413,12.153 22.033,12.533M202.456,14.371C202.42,14.763 202.391,14.483 202.39,13.75C202.39,13.017 202.419,12.696 202.454,13.037C202.49,13.379 202.491,13.979 202.456,14.371M161.385,13.152C161.286,13.533 161.065,13.613 160.962,13.304C160.802,12.824 160.5,13.425 160.503,14.218C160.505,15.192 160.737,15.778 160.926,15.287C161.074,14.899 161.275,14.925 161.385,15.348C161.637,16.311 162.083,15.61 162.083,14.25C162.083,12.89 161.637,12.189 161.385,13.152M165.444,12.944C165.275,13.113 165.312,15.467 165.485,15.574C165.741,15.732 166.128,15.496 166.242,15.113C166.349,14.753 166.352,14.754 166.517,15.163C166.758,15.759 166.995,15.307 166.995,14.25C166.995,13.2 166.756,12.736 166.526,13.337L166.368,13.75L166.188,13.292C166.017,12.856 165.687,12.702 165.444,12.944M375.075,13.046C374.824,13.698 375.079,15.583 375.417,15.583C375.635,15.583 375.768,15.454 375.803,15.208C375.87,14.736 376.099,14.723 376.219,15.183C376.397,15.863 376.667,15.3 376.667,14.25C376.667,13.2 376.397,12.637 376.219,13.317C376.099,13.777 375.87,13.764 375.803,13.293C375.743,12.868 375.212,12.688 375.075,13.046M68.287,14.372C68.25,14.672 68.219,14.467 68.218,13.917C68.217,13.367 68.248,13.122 68.286,13.372C68.324,13.622 68.325,14.072 68.287,14.372M366.448,13.958C366.406,14.119 366.372,13.987 366.372,13.667C366.372,13.346 366.406,13.215 366.448,13.375C366.49,13.535 366.49,13.798 366.448,13.958M81.737,13.556C81.686,13.689 81.668,14.087 81.697,14.441L81.75,15.083L83.25,15.083L83.25,13.417L82.54,13.365C82.037,13.329 81.803,13.385 81.737,13.556M117.621,14.875C117.584,15.173 117.553,14.929 117.553,14.333C117.553,13.737 117.584,13.494 117.621,13.792C117.658,14.09 117.658,14.577 117.621,14.875M244.234,13.566C244.05,14.045 244.243,15.079 244.526,15.133C244.859,15.196 245.073,14.431 244.907,13.771C244.79,13.304 244.382,13.18 244.234,13.566M384.618,14.708C384.578,14.915 384.545,14.746 384.545,14.333C384.545,13.921 384.578,13.752 384.618,13.958C384.657,14.165 384.657,14.502 384.618,14.708M201.5,16.343C201.5,16.521 201.425,16.667 201.333,16.667C201.242,16.667 201.167,16.475 201.167,16.24C201.167,15.998 201.239,15.858 201.333,15.917C201.425,15.973 201.5,16.165 201.5,16.343M209.167,19.097C209.167,20.839 209.113,21.51 208.977,21.465C208.779,21.399 208.771,20.719 208.94,18.125C209.079,15.973 209.167,16.347 209.167,19.097M353.123,17.708C353.116,18.19 353.155,19.201 353.211,19.955C353.301,21.189 353.171,21.854 352.952,21.281C352.793,20.869 352.818,16.833 352.978,16.833C353.065,16.833 353.13,17.227 353.123,17.708"/>
    </g>
</svg>
